<svg width="49" height="35" fill="none" xmlns="http://www.w3.org/2000/svg"><path d="M33.25 2.108v-.58A1.53 1.53 0 0031.722 0H1.529A1.53 1.53 0 000 1.529v27.678a1.53 1.53 0 001.529 1.53h6.308c.67 2.345 2.81 4.076 5.367 4.076 2.558 0 4.697-1.731 5.367-4.077h15.712c.67 2.346 2.81 4.077 5.367 4.077 2.559 0 4.697-1.731 5.368-4.077h2.026c.063 0 .116-.028.177-.036.06.008.114.036.177.036a1.53 1.53 0 001.53-1.529v-11.7c0-8.065-6.905-14.7-15.678-15.399zm12.56 14.38h-5.742c-1.465-.401-1.761-3.025-1.761-7.11V6.531c4.166 1.931 7.1 5.632 7.503 9.956zM36.268 5.766v3.611c0 4.431.265 8.463 3.474 9.128.068.014.137.021.207.021h5.92v9.152h-.851c-.67-2.345-2.81-4.076-5.367-4.076-2.559 0-4.697 1.731-5.368 4.076H18.572a5.566 5.566 0 00-1.145-2.118h14.295c.41 0 .758-.245.92-.594.36-.28.608-.698.608-1.19V5.173c1.046.099 2.053.305 3.018.594zm-6.075 17.756H3.058V3.058h27.135v20.464zM3.058 25.56h5.924a5.565 5.565 0 00-1.145 2.119h-4.78V25.56zm10.146 6.195a2.55 2.55 0 01-2.548-2.548 2.55 2.55 0 012.548-2.548 2.55 2.55 0 012.547 2.543v.01a2.55 2.55 0 01-2.547 2.543zm26.447 0a2.55 2.55 0 01-2.549-2.548 2.55 2.55 0 012.549-2.548 2.55 2.55 0 012.547 2.548 2.55 2.55 0 01-2.547 2.548z" fill="#1D1D1B"/></svg>