<svg width="49" height="47" fill="none" xmlns="http://www.w3.org/2000/svg"><path d="M48.847 17.657a1.527 1.527 0 00-1.234-1.04l-15.05-2.189L25.833.782c-.518-1.043-2.226-1.043-2.743 0l-6.73 13.646-15.05 2.188a1.527 1.527 0 00-1.235 1.041c-.18.554-.03 1.16.387 1.567l10.89 10.622-2.571 14.998a1.528 1.528 0 00.609 1.495c.468.345 1.09.386 1.61.118l13.461-7.081 13.461 7.08a1.538 1.538 0 00.753.176 1.528 1.528 0 001.41-2.126l-2.515-14.66 10.891-10.622a1.526 1.526 0 00.386-1.567zM34.861 28.218a1.53 1.53 0 00-.44 1.354l2.184 12.736-11.431-6.014a1.527 1.527 0 00-1.425 0l-11.43 6.014 2.183-12.736a1.53 1.53 0 00-.44-1.354l-9.249-9.022 12.78-1.857c.5-.072.93-.386 1.153-.836l5.715-11.588 5.716 11.588c.223.45.653.764 1.152.836l12.78 1.857-9.248 9.022z" fill="#1D1D1B"/></svg>