<svg width="42" height="43" fill="none" xmlns="http://www.w3.org/2000/svg"><path d="M29.951 25.953c-.64 0-1.047.274-1.277.504l-2.568 2.57c-.02.02-.13.074-.383.074-1.415 0-4.419-1.574-7.424-4.58-4.04-4.039-4.93-7.384-4.506-7.808l2.57-2.567c1.693-1.694-1.304-5.196-3.24-7.133-.88-.879-3.897-3.744-5.854-3.744-.64 0-1.048.274-1.278.504L.853 8.911c-1.542 1.542-.992 4.535 1.636 8.896 2.268 3.766 5.855 8.177 10.1 12.423 6.27 6.269 14.577 12.595 19.004 12.595h.001c1.204 0 1.924-.466 2.314-.858l5.139-5.139c1.693-1.692-1.304-5.194-3.24-7.13-.88-.88-3.897-3.745-5.856-3.745zm2.122 14.178c-.038.037-.18.098-.48.098-2.585 0-9.48-4.148-17.168-11.835-4.1-4.1-7.55-8.336-9.713-11.926-2.417-4.014-2.211-5.534-2.023-5.721L7.494 5.94c.64.262 2.075 1.19 3.793 2.908 1.718 1.719 2.645 3.154 2.907 3.793l-2.236 2.236c-2.395 2.398.657 7.63 4.506 11.478 3.292 3.294 6.84 5.34 9.259 5.34 1.142 0 1.837-.452 2.219-.834l2.236-2.236c.639.262 2.074 1.188 3.793 2.907 1.717 1.719 2.645 3.152 2.907 3.793l-4.805 4.805zm4.812-35.747A14.875 14.875 0 0026.292 0h-.003a1.298 1.298 0 000 2.596h.003c3.311 0 6.421 1.286 8.757 3.624a12.303 12.303 0 013.624 8.76 1.298 1.298 0 002.596 0 14.876 14.876 0 00-4.384-10.596z" fill="#1D1D1B"/><path d="M24.577 7.73h.003c2.397 0 4.647.93 6.338 2.62a8.912 8.912 0 012.622 6.342 1.298 1.298 0 002.596 0 11.478 11.478 0 00-3.382-8.177 11.487 11.487 0 00-8.174-3.382h-.003a1.298 1.298 0 000 2.596zm-1.712 5.133h.003a5.51 5.51 0 013.918 1.62 5.507 5.507 0 011.62 3.922 1.298 1.298 0 002.597 0 8.08 8.08 0 00-2.382-5.757 8.076 8.076 0 00-5.753-2.382h-.003a1.298 1.298 0 000 2.597z" fill="#1D1D1B"/></svg>