<svg width="49" height="49" fill="none" xmlns="http://www.w3.org/2000/svg"><path d="M24.462 0C10.972 0 0 10.973 0 24.462c0 13.488 10.973 24.46 24.462 24.46 13.488 0 24.461-10.973 24.461-24.462C48.923 10.974 37.95 0 24.461 0zm0 45.865c-11.803 0-21.404-9.6-21.404-21.404 0-11.802 9.6-21.403 21.404-21.403 11.802 0 21.403 9.6 21.403 21.404 0 11.802-9.6 21.403-21.404 21.403z" fill="#1D1D1B"/><path d="M25.015 9.938h-6.217a1.53 1.53 0 00-1.529 1.528v11.467h-1.855a1.53 1.53 0 000 3.057h1.855v2.039h-1.855a1.53 1.53 0 000 3.058h1.855v6.37a1.53 1.53 0 003.058 0v-6.37h5.827a1.53 1.53 0 000-3.058h-5.827V25.99h4.688c5.526 0 10.023-3.6 10.023-8.026 0-4.425-4.497-8.026-10.023-8.026zm0 12.995h-4.688v-9.938h4.688c3.84 0 6.965 2.23 6.965 4.969 0 2.74-3.125 4.969-6.965 4.969z" fill="#1D1D1B"/></svg>