<svg width="202" height="41" viewBox="0 0 202 41" fill="none" xmlns="http://www.w3.org/2000/svg">
<path fill-rule="evenodd" clip-rule="evenodd" d="M178.56 10.1824C181.857 10.3485 184.237 12.5098 184.604 15.3365C184.787 16.8323 184.787 19.1597 184.787 20.6555C184.787 22.4846 184.787 23.9805 184.604 25.4764C184.054 28.9685 181.307 30.9637 178.56 30.9637H176.362H173.798C171.234 30.9637 168.303 28.9685 167.754 25.4764C167.571 23.9805 167.571 22.4836 167.571 20.8216C167.571 19.1597 167.571 16.8323 167.754 15.3354C168.12 12.5087 170.684 10.3474 173.981 10.1813C174.712 10.0152 175.262 10.0152 176.178 10.0152L178.56 10.1824ZM176.727 0.539673C180.207 0.539673 183.504 0.705758 186.251 1.03793C193.943 1.86944 200.17 7.35568 201.451 14.1728C201.634 15.3365 202.001 17.996 202.001 20.6566C202.001 23.4833 201.634 26.1429 201.451 27.1405C200.17 34.1236 193.943 39.4438 186.251 40.4414C183.504 40.6075 180.207 40.9397 176.727 40.9397H175.628C171.966 40.9397 168.853 40.6075 165.922 40.4414C158.231 39.4438 152.188 34.1236 150.905 27.1405C150.722 26.1429 150.356 23.4833 150.356 20.6566C150.356 17.9971 150.722 15.3376 150.905 14.1728C152.186 7.35568 158.231 1.87053 165.922 1.03793C168.853 0.705758 171.967 0.539673 175.445 0.539673H176.727Z" fill="black"/>
<path fill-rule="evenodd" clip-rule="evenodd" d="M110.616 20.6555C110.616 18.4943 110.798 16.3341 111.347 14.1717C112.629 7.3546 118.673 1.86944 126.365 1.03684C129.113 0.705758 132.41 0.539673 135.888 0.539673C139.735 0.539673 143.215 0.705758 146.144 1.03793C147.243 1.20401 147.975 2.03553 147.975 3.03312V9.01762C147.975 10.1813 147.059 11.0128 145.96 11.0128C145.96 11.0128 142.48 10.8456 140.65 10.8456C138.452 10.8456 136.621 10.8456 134.605 11.0128C131.31 11.1789 128.929 13.3402 128.562 16.1669C128.379 17.6627 128.195 19.1597 128.195 20.6555V20.8216C128.195 22.3186 128.377 23.8144 128.562 25.3103C128.929 28.137 131.127 30.2983 134.605 30.6304C136.437 30.7965 138.635 30.9637 140.65 30.9637C142.48 30.9637 145.96 30.7976 145.96 30.7976C147.059 30.7976 147.975 31.6291 147.975 32.7928V38.7784C147.975 39.776 147.243 40.6075 146.144 40.7736C143.215 40.7736 139.735 40.9386 135.888 40.9386C132.41 40.9386 129.113 40.6064 126.365 40.4403C118.673 39.4427 112.63 34.1226 111.347 27.1394C110.798 25.1453 110.616 22.984 110.616 20.8227C110.616 14.0056 110.616 27.4737 110.616 20.6555Z" fill="black"/>
<path fill-rule="evenodd" clip-rule="evenodd" d="M105.672 30.4643C106.953 30.4643 107.869 31.4619 107.869 32.4595V38.4451C107.869 39.6088 106.953 40.4403 105.672 40.4403H79.4825C74.7209 40.4403 70.8754 36.9492 70.8754 32.6267V9.01869C70.8754 4.69721 74.7209 1.20508 79.4825 1.20508H105.671C106.952 1.20508 107.868 2.03659 107.868 3.03419V8.8526C107.868 10.0174 106.952 10.8478 105.671 10.8478H89.5556C88.2738 10.8478 87.3578 11.5132 87.3578 12.6769V16.3351L101.094 16.169C102.191 16.169 103.29 17.1666 103.29 18.1642V23.1522C103.29 24.3159 102.191 25.1474 101.094 25.1474H87.3578V28.4724C87.3578 29.6361 88.2738 30.4676 89.5556 30.4676H105.672V30.4643Z" fill="black"/>
<path fill-rule="evenodd" clip-rule="evenodd" d="M39.0093 40.4403C35.1637 40.4403 31.867 38.1118 30.7681 34.953L21.795 3.53244C21.795 3.36636 21.795 3.20027 21.795 3.03419C21.795 2.03659 22.711 1.20508 23.9929 1.20508H37.3615C38.4605 1.20508 39.3764 1.87051 39.5582 2.70093L46.5175 28.9696C46.5175 29.3028 46.8846 29.6339 47.4335 29.6339C47.7994 29.6339 48.1653 29.3017 48.1653 28.9696L55.3076 2.70093C55.4906 1.86942 56.4065 1.20508 57.3225 1.20508H64.8307C66.1126 1.20508 67.0286 2.03659 67.0286 3.03419C67.0286 3.20027 67.0286 3.36636 67.0286 3.53244L58.4214 34.2897C57.5055 37.7808 54.3917 40.4403 49.9972 40.4403H39.0093Z" fill="black"/>
<path fill-rule="evenodd" clip-rule="evenodd" d="M2.1988 1.20404H15.2016C16.4834 1.20404 17.3994 2.03555 17.3994 3.03315V38.4452C17.3994 39.6088 16.4834 40.4403 15.2016 40.4403H2.1988C1.09989 40.4403 0.000976562 39.6088 0.000976562 38.4452V3.03315C0.000976562 2.03555 1.09989 1.20404 2.1988 1.20404Z" fill="black"/>
</svg>
