<svg width="203" height="39" viewBox="0 0 203 39" fill="none" xmlns="http://www.w3.org/2000/svg">
<path fill-rule="evenodd" clip-rule="evenodd" d="M85.9268 12.9642L94.9635 12.9597L90.3788 0.0946045L85.9268 12.9642Z" fill="white"/>
<path fill-rule="evenodd" clip-rule="evenodd" d="M192.851 3.75497H203.001V36.487H192.851V3.75497ZM14.1502 2.43964C22.0081 2.43964 27.0602 6.21739 27.0602 12.8518H17.2917C17.2917 8.81067 11.0619 8.56596 11.0619 12.2214C11.0619 17.0714 28.2029 12.9436 28.2029 26.8702C28.2029 42.2055 0.000976562 42.4791 0.000976562 26.5931H10.266C10.266 32.1757 17.349 32.1621 17.349 27.8422C17.349 21.8756 0.80243 26.4759 0.80243 13.6149C0.80243 5.75856 6.24197 2.43964 14.1502 2.43964ZM30.522 3.75497H40.5548V15.542H49.2715V3.75497H59.3169V36.487H49.2715V24.6609H40.5548V36.487H30.522V3.75497ZM72.6983 3.75497H84.7439L96.0034 36.487H76.2831L73.7123 27.9221L83.8165 27.917L78.6903 13.3617L70.7849 36.4853H61.3884L72.6983 3.75497ZM98.107 3.75497H107.294L117.307 19.5033V3.75497H126.903V36.487H117.662L107.75 20.5212V36.487H98.107V3.75497ZM129.86 3.75497H158.118V12.772H149.076V36.487H139.005V12.772H129.86V3.75497ZM189.881 3.75497V22.4313C189.881 33.0271 182.97 36.487 175.87 36.487C168.629 36.487 161.086 33.9821 161.086 22.4313V3.75497H171.175V22.9174C171.175 26.1207 172.951 27.8711 175.526 27.8711C178.391 27.8711 179.84 25.9559 179.84 22.9174V3.75497H189.881Z" fill="black"/>
</svg>
