<svg width="203" height="113" viewBox="0 0 203 113" fill="none" xmlns="http://www.w3.org/2000/svg">
<path fill-rule="evenodd" clip-rule="evenodd" d="M192.452 112.065C192.766 108.992 192.925 105.094 192.925 101.939C192.925 51.4469 151.991 10.5143 101.499 10.5143C51.0073 10.5143 10.0746 51.4469 10.0746 101.939C10.0746 105.379 10.2645 108.729 10.6345 112.071L0.52506 112.058C0.17552 108.696 0.000590524 105.319 0.000977202 101.939C0.000977202 45.8839 45.4453 0.440613 101.5 0.440613C157.558 0.440613 203.001 45.8839 203.001 101.939C203.001 105.355 202.832 108.729 202.503 112.058L192.452 112.065Z" fill="black"/>
<path fill-rule="evenodd" clip-rule="evenodd" d="M42.7283 109.775L53.4151 98.7326V112.092H68.1957V82.1703H53.4151L42.7283 94.9935L32.0438 82.1703H17.2621V112.092H32.0438V98.7326L42.7283 109.775ZM134.268 82.1703V112.092H149.052V96.4182L168.818 112.092H184.49V82.1703H169.708V98.1998L149.052 82.1703H134.268ZM73.7176 112.092L92.5943 82.1703H109.869L128.925 112.092H113.254L101.321 93.214L95.4447 102.829H107.197L111.473 109.419H91.1707L89.389 112.092H73.7176Z" fill="black"/>
</svg>
