<svg width="202" height="32" viewBox="0 0 202 32" fill="none" xmlns="http://www.w3.org/2000/svg">
<path fill-rule="evenodd" clip-rule="evenodd" d="M189.465 1.09796H171.663L162.335 23.6955L162.364 1.07035H150.388V31.4299H171.34L173.223 26.8107H188.169L190.32 31.4299H202L189.465 1.09796ZM136.351 17.4033L123.698 1.06873H108.515V23.6078L98.9829 1.09634H81.4174L74.0596 19.1347H63.085C62.1726 22.9126 60.0843 24.5871 56.287 24.5871C51.9333 24.5871 48.9905 21.4118 48.9905 16.6789C48.9905 10.5329 51.4613 7.35763 56.1992 7.35763C60.0843 7.35763 62.2901 9.06141 62.9658 12.6103H75.4159L75.4457 12.1474C75.4457 4.81738 67.8842 0 56.3781 0C44.0787 0 38.2528 4.70368 37.2509 15.4965C35.4872 13.6205 32.6024 12.149 30.4247 11.9769L25.7745 11.5724L18.9186 11.4571C15.9774 11.3986 14.2982 10.3884 14.2982 8.68622C14.2982 6.75342 16.0056 5.6847 19.1239 5.6847C22.7125 5.6847 24.1549 6.98244 24.1549 10.1854H37.2492V9.78094C37.2492 3.51965 31.0705 0.0552297 19.8608 0.0552297C7.41407 0.0552297 1.32317 3.40271 1.32317 10.1837C1.32317 15.9854 5.79612 19.1006 14.3578 19.3312L19.4485 19.4482C23.1862 19.5619 24.8637 20.4568 24.8637 22.3912C24.8637 24.0349 22.5088 25.5925 20.0678 25.5925C15.8002 25.5925 13.5646 24.1486 13.5646 21.4362H0V21.7253C0 28.3049 6.76822 31.9107 19.0676 31.9107C30.9265 31.9107 36.7524 29.3737 38.6353 23.343C42.431 29.6904 47.3742 32 56.9958 32C63.1165 32 66.2928 31.1619 70.2673 28.3326L68.9987 31.4218H80.5645L82.6826 26.6889H97.8651L99.8971 31.3649H119.728V13.385L133.824 31.4218H147.859V1.09796H136.355V17.4033H136.351ZM176.429 19.1932L180.518 9.14913L185.166 19.1363L176.429 19.1932ZM85.8589 19.1932L89.9791 8.83241L94.6855 19.1932H85.8589Z" fill="black"/>
</svg>
