<svg width="203" height="33" viewBox="0 0 203 33" fill="none" xmlns="http://www.w3.org/2000/svg">
<path fill-rule="evenodd" clip-rule="evenodd" d="M0 0V32.9988H13.2385V19.3726L14.9238 17.4684L23.0787 33H38.0001L25.0754 9.53373L37.1611 0H30.1277L13.2385 12.542V0H0ZM135.024 33L149.914 0.001164H155.84L169.903 33H155.84L153.877 29.1742H140.915L138.952 33H135.024ZM142.897 25.0979L147.947 14.4625L151.91 25.0979H142.897ZM42.3529 33L57.2767 0H63.1693L76.9523 32.9988H63.1705L61.2051 29.173H48.2623L45.9988 32.9988H42.3529V33ZM50.2277 25.0979L55.2933 14.4625L59.2397 25.0979H50.2277ZM85.0399 33V0H97.9635L106.979 16.3643L115.135 0H128.114V32.9988H114.029V13.6286L105.016 33H99.1067L90.0911 15.5316V33H85.0399ZM175.131 0H203L193.984 28.1062H201.032V32.9988H175.131L183.851 4.89381H175.131V0Z" fill="black"/>
</svg>
