<svg width="203" height="29" viewBox="0 0 203 29" fill="none" xmlns="http://www.w3.org/2000/svg">
<path fill-rule="evenodd" clip-rule="evenodd" d="M0.000976562 1.64113V5.35705H6.08057L17.9781 27.7261H32.6188L44.5163 5.31991L50.5949 5.28149L50.6081 1.64113H32.4203V5.29421H37.2639L28.8625 21.1968L19.7765 5.34967L26.4037 5.31991L26.392 1.64113H0.000976562ZM117.336 1.64113V5.35705H123.414L135.312 27.7261H149.953L161.851 5.31991L167.93 5.28149L167.941 1.64113H149.756V5.29421H154.598L146.197 21.1968L137.11 5.34967L143.739 5.31991L143.727 1.64113H117.336ZM87.4217 1.64113V5.35705H93.5002L93.5104 23.6194H87.1019V27.6899L93.5147 27.7263H123.866V15.5841H119.913C119.696 22.0129 114.133 23.628 111.79 23.628C109.643 23.628 105.483 23.6197 105.483 23.6197V5.34967L111.47 5.31965L111.462 1.64088H87.4217V1.64113ZM66.6885 24.3856C63.0459 24.3856 60.0946 20.0113 60.0946 14.6126C60.0946 9.21263 63.0459 4.83503 66.6885 4.83503C70.3301 4.83503 73.2825 9.21263 73.2825 14.6126C73.2825 20.0113 70.3301 24.3856 66.6885 24.3856ZM66.9565 0.891692C56.6238 0.891692 48.2477 7.05995 48.2477 14.6658C48.2477 22.2721 56.6235 28.4396 66.9565 28.4396C77.2884 28.4396 85.6657 22.2721 85.6657 14.6658C85.6657 7.05995 77.2884 0.891692 66.9565 0.891692ZM184.024 24.3162C180.383 24.3162 177.432 19.8694 177.432 14.3814C177.432 8.8954 180.383 4.44759 184.024 4.44759C187.666 4.44759 190.617 8.8954 190.617 14.3814C190.617 19.8691 187.666 24.3162 184.024 24.3162ZM184.294 0.439636C173.959 0.439636 165.585 6.70838 165.585 14.4384C165.585 22.1681 173.958 28.4356 184.294 28.4356C194.625 28.4356 203.001 22.1681 203.001 14.4384C203.001 6.70838 194.625 0.439636 184.294 0.439636Z" fill="black"/>
</svg>
