<svg width="23" height="24" viewBox="0 0 23 24" fill="none" xmlns="http://www.w3.org/2000/svg">
<path d="M7.50414 10.0625C8.03781 10.0625 8.47094 9.6145 8.47094 9.0625V5.1625C8.47094 3.419 9.84233 2 11.5279 2C13.2135 2 14.5854 3.419 14.5854 5.1625V9.0625C14.5854 9.6145 15.018 10.0625 15.5522 10.0625C16.0859 10.0625 16.519 9.6145 16.519 9.0625V5.1625C16.5195 2.316 14.2804 0 11.5279 0C8.77644 0 6.53735 2.316 6.53735 5.1625V9.0625C6.53735 9.6145 6.97048 10.0625 7.50414 10.0625Z" fill="black"/>
<path d="M22.6181 7.81549H17.4864V9.06249C17.4864 10.1655 16.6191 11.0625 15.5528 11.0625C14.4864 11.0625 13.6192 10.1655 13.6192 9.06249V7.81549H9.43831V9.06249C9.43831 10.1655 8.57109 11.0625 7.50472 11.0625C6.43835 11.0625 5.57114 10.1655 5.57114 9.06249V7.81549H0.381887C0.115053 7.81549 -0.0497851 8.03299 0.0135397 8.30099L3.39634 22.5495C3.60034 23.3505 4.41534 24 5.21584 24H17.7841C18.5856 24 19.3996 23.3505 19.6046 22.5495L22.9864 8.30099C23.0498 8.03249 22.8854 7.81549 22.6181 7.81549Z" fill="black"/>
</svg>
