<svg width="24" height="23" viewBox="0 0 24 23" fill="none" xmlns="http://www.w3.org/2000/svg">
<path d="M21.6 8.625H2.4C1.08 8.625 0 9.91875 0 11.5C0 13.0813 1.08 14.375 2.4 14.375H21.6C22.92 14.375 24 13.0813 24 11.5C24 9.91875 22.92 8.625 21.6 8.625Z" fill="black"/>
<path d="M2.4 5.75H16.8C18.12 5.75 19.2 4.45625 19.2 2.875C19.2 1.29375 18.12 0 16.8 0H2.4C1.08 0 0 1.29375 0 2.875C0 4.45625 1.08 5.75 2.4 5.75Z" fill="black"/>
<path d="M16.8 17.25H2.4C1.08 17.25 0 18.5437 0 20.125C0 21.7063 1.08 23 2.4 23H16.8C18.12 23 19.2 21.7063 19.2 20.125C19.2 18.5437 18.12 17.25 16.8 17.25Z" fill="black"/>
</svg>
