<svg width="22" height="25" viewBox="0 0 22 25" fill="none" xmlns="http://www.w3.org/2000/svg">
<path d="M6.94232 12.5988C2.88082 14.4259 1.07834e-06 18.8996 5.33168e-06 24.1282C-0.000363691 24.2374 0.0184267 24.3456 0.0552934 24.4466C0.0921601 24.5476 0.146374 24.6394 0.21481 24.7166C0.283246 24.7939 0.36455 24.8551 0.454036 24.8967C0.543522 24.9383 0.639421 24.9595 0.736203 24.9591H21.2695C21.464 24.9582 21.6502 24.8702 21.7872 24.7143C21.9242 24.5585 22.0007 24.3477 22 24.1282C22 18.9001 19.12 14.4262 15.0591 12.5988C13.9362 13.5927 12.5273 14.1927 11 14.1927C9.47237 14.1927 8.06428 13.593 6.94232 12.5988Z" fill="black"/>
<path d="M11.0001 0.128296C7.76868 0.128296 5.1377 3.0978 5.1377 6.74489C5.1377 10.392 7.76868 13.368 11.0001 13.368C14.2314 13.368 16.8682 10.392 16.8682 6.74489C16.8682 3.0978 14.2314 0.128296 11.0001 0.128296Z" fill="black"/>
</svg>
