<svg width="23" height="24" fill="none" xmlns="http://www.w3.org/2000/svg"><path d="M7.504 10.063c.534 0 .967-.449.967-1v-3.9C8.47 3.418 9.842 2 11.528 2c1.685 0 3.057 1.419 3.057 3.162v3.9c0 .553.433 1 .967 1s.967-.447.967-1v-3.9C16.519 2.316 14.28 0 11.528 0s-4.99 2.316-4.99 5.162v3.9c0 .553.432 1 .966 1z" fill="#000"/><path d="M22.618 7.815h-5.132v1.247c0 1.104-.867 2-1.933 2-1.067 0-1.934-.896-1.934-2V7.815H9.44v1.247c0 1.104-.868 2-1.934 2-1.067 0-1.934-.896-1.934-2V7.815H.381c-.266 0-.43.218-.367.486l3.382 14.248C3.6 23.351 4.416 24 5.216 24h12.568c.802 0 1.616-.65 1.82-1.45L22.987 8.3c.064-.269-.1-.486-.368-.486z" fill="#000"/></svg>