<svg width="22" height="25" fill="none" xmlns="http://www.w3.org/2000/svg"><path d="M6.942 12.599C2.881 14.426 0 18.899 0 24.129a.93.93 0 00.055.318.842.842 0 00.16.27c.068.077.15.138.239.18.09.041.185.063.282.062H21.27a.69.69 0 00.517-.245.885.885 0 00.213-.586c0-5.228-2.88-9.702-6.94-11.53-1.124.995-2.533 1.595-4.06 1.595-1.528 0-2.936-.6-4.058-1.594z" fill="#000"/><path d="M11 .128c-3.231 0-5.862 2.97-5.862 6.617s2.63 6.623 5.862 6.623c3.231 0 5.868-2.976 5.868-6.623 0-3.647-2.637-6.617-5.868-6.617z" fill="#000"/></svg>