<svg width="202" height="41" fill="none" xmlns="http://www.w3.org/2000/svg"><path fill-rule="evenodd" clip-rule="evenodd" d="M178.56 10.182c3.297.166 5.677 2.328 6.044 5.154.183 1.496.183 3.824.183 5.32 0 1.829 0 3.325-.183 4.82-.55 3.492-3.297 5.488-6.044 5.488h-4.762c-2.564 0-5.495-1.995-6.044-5.488-.183-1.495-.183-2.992-.183-4.654s0-3.99.183-5.487c.366-2.826 2.93-4.988 6.227-5.154.731-.166 1.281-.166 2.197-.166l2.382.167zM176.727.54c3.48 0 6.777.166 9.524.498 7.692.831 13.919 6.318 15.2 13.135.183 1.163.55 3.823.55 6.484 0 2.826-.367 5.486-.55 6.483-1.281 6.984-7.508 12.304-15.2 13.301-2.747.166-6.044.499-9.524.499h-1.099c-3.662 0-6.775-.332-9.706-.499-7.691-.997-13.734-6.317-15.017-13.3-.183-.998-.549-3.658-.549-6.484 0-2.66.366-5.32.549-6.484 1.281-6.817 7.326-12.302 15.017-13.135 2.931-.332 6.045-.498 9.523-.498h1.282zm-66.111 20.115c0-2.16.182-4.32.731-6.483 1.282-6.817 7.326-12.303 15.018-13.135 2.748-.331 6.045-.497 9.523-.497 3.847 0 7.327.166 10.256.498 1.099.166 1.831.998 1.831 1.995v5.985c0 1.163-.916 1.995-2.015 1.995 0 0-3.48-.167-5.31-.167-2.198 0-4.029 0-6.045.167-3.295.166-5.676 2.327-6.043 5.154-.183 1.496-.367 2.993-.367 4.488v.167c0 1.497.182 2.992.367 4.488.367 2.827 2.565 4.988 6.043 5.32 1.832.167 4.03.334 6.045.334 1.83 0 5.31-.166 5.31-.166 1.099 0 2.015.831 2.015 1.995v5.985c0 .998-.732 1.83-1.831 1.996-2.929 0-6.409.165-10.256.165-3.478 0-6.775-.333-9.523-.499-7.692-.997-13.735-6.317-15.018-13.3-.549-1.995-.731-4.156-.731-6.317v-.168zm-4.944 9.809c1.281 0 2.197.998 2.197 1.995v5.986c0 1.164-.916 1.995-2.197 1.995h-26.19c-4.761 0-8.607-3.49-8.607-7.813V9.019c0-4.322 3.846-7.814 8.608-7.814h26.188c1.281 0 2.197.832 2.197 1.83v5.818c0 1.164-.916 1.995-2.197 1.995H89.556c-1.282 0-2.198.665-2.198 1.829v3.658l13.736-.166c1.097 0 2.196.998 2.196 1.995v4.988c0 1.164-1.099 1.995-2.196 1.995H87.358v3.325c0 1.164.916 1.996 2.198 1.996h16.116v-.004zM39.01 40.44c-3.846 0-7.143-2.328-8.242-5.487l-8.973-31.42v-.499c0-.997.916-1.829 2.198-1.829h13.369c1.099 0 2.014.666 2.196 1.496l6.96 26.269c0 .333.367.664.916.664.365 0 .731-.332.731-.664L55.308 2.7c.183-.83 1.099-1.495 2.014-1.495h7.509c1.282 0 2.198.832 2.198 1.83v.497L58.42 34.29c-.916 3.49-4.03 6.15-8.424 6.15H39.01zM2.199 1.204h13.003c1.281 0 2.197.832 2.197 1.83v35.411c0 1.164-.916 1.995-2.197 1.995H2.199c-1.1 0-2.199-.83-2.199-1.995V3.033c0-.997 1.099-1.829 2.198-1.829z" fill="#000"/></svg>