<svg width="203" height="39" fill="none" xmlns="http://www.w3.org/2000/svg"><path fill-rule="evenodd" clip-rule="evenodd" d="M85.927 12.964l9.036-.004L90.38.095l-4.452 12.87z" fill="#fff"/><path fill-rule="evenodd" clip-rule="evenodd" d="M192.851 3.755h10.15v32.732h-10.15V3.755zM14.151 2.44c7.857 0 12.91 3.777 12.91 10.412h-9.77c0-4.041-6.23-4.286-6.23-.63 0 4.85 17.142.722 17.142 14.648C28.203 42.205 0 42.48 0 26.593h10.265c0 5.583 7.083 5.57 7.083 1.25 0-5.967-16.547-1.367-16.547-14.228C.802 5.759 6.242 2.44 14.15 2.44zm16.371 1.315h10.033v11.787h8.717V3.755h10.045v32.732H49.272V24.661h-8.717v11.826H30.522V3.755zm42.176 0h12.046l11.26 32.732h-19.72l-2.572-8.565 10.105-.005-5.127-14.555-7.905 23.123h-9.397l11.31-32.73zm25.409 0h9.187l10.013 15.748V3.755h9.596v32.732h-9.241l-9.912-15.966v15.966h-9.643V3.755zm31.753 0h28.258v9.017h-9.042v23.715h-10.071V12.772h-9.145V3.755zm60.021 0v18.676c0 10.596-6.911 14.056-14.011 14.056-7.241 0-14.784-2.505-14.784-14.056V3.755h10.089v19.162c0 3.204 1.776 4.954 4.351 4.954 2.865 0 4.314-1.915 4.314-4.954V3.755h10.041z" fill="#000"/></svg>