<svg width="203" height="113" fill="none" xmlns="http://www.w3.org/2000/svg"><path fill-rule="evenodd" clip-rule="evenodd" d="M192.452 112.065c.314-3.073.473-6.971.473-10.126 0-50.492-40.934-91.425-91.426-91.425-50.492 0-91.424 40.933-91.424 91.425 0 3.44.19 6.79.56 10.132l-10.11-.013a97.737 97.737 0 01-.524-10.119C.001 45.884 45.445.441 101.5.441c56.058 0 101.501 45.443 101.501 101.498 0 3.416-.169 6.79-.498 10.119l-10.051.007z" fill="#000"/><path fill-rule="evenodd" clip-rule="evenodd" d="M42.728 109.775l10.687-11.042v13.359h14.78V82.17h-14.78L42.728 94.993 32.044 82.17H17.262v29.922h14.782v-13.36l10.684 11.043zm91.54-27.605v29.922h14.784V96.418l19.766 15.674h15.672V82.17h-14.782V98.2l-20.656-16.03h-14.784zm-60.55 29.922L92.594 82.17h17.275l19.056 29.922h-15.671l-11.933-18.878-5.876 9.615h11.752l4.276 6.59H91.171l-1.782 2.673H73.718z" fill="#000"/></svg>