<svg width="202" height="32" fill="none" xmlns="http://www.w3.org/2000/svg"><path fill-rule="evenodd" clip-rule="evenodd" d="M189.465 1.098h-17.802l-9.328 22.598.029-22.626h-11.976v30.36h20.952l1.883-4.62h14.946l2.151 4.62H202L189.465 1.098zm-53.114 16.305L123.698 1.07h-15.183v22.539L98.983 1.096H81.417L74.06 19.135H63.085c-.912 3.778-3 5.452-6.798 5.452-4.354 0-7.297-3.175-7.297-7.908 0-6.146 2.471-9.321 7.21-9.321 3.884 0 6.09 1.703 6.766 5.252h12.45l.03-.463C75.446 4.817 67.884 0 56.378 0c-12.3 0-18.125 4.704-19.127 15.496-1.764-1.876-4.649-3.347-6.826-3.52l-4.65-.404-6.856-.115c-2.942-.058-4.62-1.069-4.62-2.77 0-1.934 1.707-3.002 4.825-3.002 3.588 0 5.03 1.297 5.03 4.5H37.25v-.404c0-6.261-6.18-9.726-17.389-9.726C7.414.055 1.323 3.403 1.323 10.184c0 5.801 4.473 8.917 13.035 9.147l5.09.117c3.738.114 5.416 1.009 5.416 2.943 0 1.644-2.355 3.202-4.796 3.202-4.268 0-6.503-1.444-6.503-4.157H0v.29C0 28.304 6.768 31.91 19.068 31.91c11.858 0 17.684-2.537 19.567-8.568C42.431 29.69 47.375 32 56.995 32c6.122 0 9.298-.838 13.272-3.667L69 31.422h11.566l2.118-4.733h15.182l2.032 4.676h19.831v-17.98l14.096 18.037h14.035V1.098h-11.504v16.305h-.004zm40.078 1.79l4.089-10.044 4.648 9.987-8.737.057zm-90.57 0l4.12-10.36 4.707 10.36h-8.827z" fill="#000"/></svg>