<svg width="203" height="33" fill="none" xmlns="http://www.w3.org/2000/svg"><path fill-rule="evenodd" clip-rule="evenodd" d="M0 0v32.999h13.239V19.373l1.685-1.905L23.079 33H38L25.075 9.534 37.161 0h-7.033l-16.89 12.542V0H0zm135.024 33L149.914.001h5.926L169.903 33H155.84l-1.963-3.826h-12.962L138.952 33h-3.928zm7.873-7.902l5.05-10.635 3.963 10.635h-9.013zM42.353 33L57.277 0h5.892l13.783 32.999H63.17l-1.965-3.826H48.262L46 32.999h-3.646V33zm7.875-7.902l5.065-10.635 3.947 10.635h-9.012zM85.04 33V0h12.923l9.016 16.364L115.135 0h12.979v32.999h-14.085v-19.37L105.016 33h-5.91l-9.015-17.468V33H85.04zm90.09-33H203l-9.016 28.106h7.048V33h-25.901l8.72-28.105h-8.72V0z" fill="#000"/></svg>