<svg width="203" height="29" fill="none" xmlns="http://www.w3.org/2000/svg"><path fill-rule="evenodd" clip-rule="evenodd" d="M.001 1.641v3.716h6.08l11.897 22.37h14.64L44.517 5.32l6.079-.039.013-3.64H32.42v3.653h4.844l-8.402 15.903L19.777 5.35l6.627-.03-.012-3.679H.001zm117.335 0v3.716h6.078l11.898 22.37h14.641L161.851 5.32l6.079-.039.011-3.64h-18.185v3.653h4.842l-8.401 15.903L137.11 5.35l6.629-.03-.012-3.679h-26.391zm-29.914 0v3.716H93.5l.01 18.262h-6.408v4.07l6.413.037h30.351V15.584h-3.953c-.217 6.429-5.78 8.044-8.123 8.044-2.147 0-6.307-.008-6.307-.008V5.35l5.987-.03-.008-3.68h-24.04v.001zM66.689 24.386c-3.643 0-6.594-4.375-6.594-9.773 0-5.4 2.95-9.778 6.594-9.778 3.641 0 6.594 4.378 6.594 9.778 0 5.398-2.953 9.773-6.594 9.773zM66.957.892c-10.333 0-18.71 6.168-18.71 13.774 0 7.606 8.377 13.774 18.71 13.774 10.331 0 18.709-6.168 18.709-13.774 0-7.606-8.378-13.774-18.71-13.774zm117.067 23.424c-3.641 0-6.592-4.447-6.592-9.935 0-5.486 2.951-9.933 6.592-9.933 3.642 0 6.593 4.447 6.593 9.933 0 5.488-2.951 9.935-6.593 9.935zm.27-23.876c-10.335 0-18.709 6.268-18.709 13.998 0 7.73 8.373 13.998 18.709 13.998 10.331 0 18.707-6.268 18.707-13.998 0-7.73-8.376-13.998-18.707-13.998z" fill="#000"/></svg>