<svg width="35" height="38" fill="none" xmlns="http://www.w3.org/2000/svg"><path d="M8.255 33.61c.011-1.107.033-2.213.043-3.319 0-.258.033-.225-.214-.333-1.375-.547-2.653-1.235-3.78-2.201a11.177 11.177 0 01-2.814-3.63C.835 22.774.47 21.335.266 19.853c-.075-.58-.118-1.16-.118-1.74 0-.547-.086-1.095-.097-1.642a21.27 21.27 0 01-.01-1.171c.01-.795-.065-1.59-.033-2.384.064-1.804.387-3.565 1.095-5.24C2.113 5.29 3.767 3.487 6.022 2.22c1.696-.945 3.5-1.546 5.412-1.858C12.615.17 13.797.062 14.99.03a94.003 94.003 0 014.263-.011c1.825.021 3.63.193 5.402.623 1.685.397 3.275 1.03 4.735 1.965 1.772 1.127 3.125 2.62 4.038 4.52.57 1.171.913 2.406 1.138 3.684.161.945.226 1.89.215 2.846a56.257 56.257 0 01-.097 3.017c-.042.688-.042 1.375-.075 2.062-.118 1.901-.505 3.738-1.342 5.456-1.031 2.104-2.588 3.694-4.628 4.843-1.687.945-3.49 1.535-5.38 1.858a27.316 27.316 0 01-4.49.365c-.923 0-1.846-.011-2.77 0-.473 0-.945.01-1.417-.043a.38.38 0 00-.355.15 398.8 398.8 0 01-2.234 2.577l-2.76 3.18a1.642 1.642 0 01-.322.289c-.29.193-.59.086-.665-.258-.022-.075-.011-.172-.011-.247-.01-1.095.01-2.201.021-3.297z" fill="#7000FE"/><path d="M6.784 9.834c.032-1.31.634-2.298 1.718-3.007.451-.3.945-.537 1.482-.644.559-.118 1.096-.043 1.568.311.312.226.57.505.827.784.86.945 1.59 1.965 2.18 3.104.097.193.183.397.247.612.183.612.043 1.149-.365 1.621-.15.172-.322.322-.505.462a4.314 4.314 0 00-.505.397c-.375.355-.483.784-.365 1.278.043.204.118.398.194.58a8.61 8.61 0 001.793 2.588c.451.44.934.827 1.471 1.16.516.322 1.031.623 1.611.827.537.193.945.075 1.3-.376.15-.193.279-.397.45-.58.323-.344.688-.601 1.15-.709.504-.118.988-.032 1.45.172.44.183.826.462 1.213.73a38.656 38.656 0 012.255 1.697c.193.161.365.344.526.548.376.494.451 1.041.29 1.621-.15.559-.43 1.042-.795 1.482-.633.773-1.406 1.353-2.362 1.665-.258.086-.516.14-.784.16-.344.033-.666-.085-.988-.182-.311-.086-.601-.236-.891-.365a28.039 28.039 0 01-4.167-2.287 25.34 25.34 0 01-5.305-4.682 25.49 25.49 0 01-2.996-4.382 25.258 25.258 0 01-1.44-3.092 4.958 4.958 0 01-.257-1.493zm20.683 4.371c-.01.354.032.612 0 .859-.075.612-.612.934-1.181.698-.344-.14-.451-.44-.484-.773-.032-.408-.064-.817-.128-1.225-.215-1.256-.559-2.47-1.235-3.565a6.3 6.3 0 00-1.976-2.008c-.945-.612-1.998-.967-3.093-1.214a10.864 10.864 0 00-1.44-.236 1.156 1.156 0 01-.332-.075c-.333-.118-.505-.365-.483-.72.043-.622.397-.87.88-.87a8.761 8.761 0 015.048 1.45c.902.591 1.707 1.29 2.373 2.137 1.288 1.643 2.04 3.512 2.05 5.542z" fill="#E8AA32"/><path d="M24.686 14.011c-.011.183.021.419-.032.655-.076.398-.355.623-.774.634-.44.01-.72-.183-.816-.58-.043-.15-.043-.312-.064-.473a7.57 7.57 0 00-.526-2.104c-.387-.967-1.085-1.622-2.04-2.03a8.697 8.697 0 00-2.063-.59 1.898 1.898 0 01-.547-.162.565.565 0 01-.215-.171c-.237-.29-.226-.602-.097-.924.107-.29.333-.45.645-.483.257-.032.515.01.773.054.72.107 1.417.29 2.083.6a6.89 6.89 0 012.201 1.687 6.127 6.127 0 011.182 2.05c.182.591.279 1.182.29 1.837z" fill="#E8AA32"/><path d="M22.012 13.807c0 .215 0 .43-.075.634a.76.76 0 01-.655.537c-.333.043-.602-.075-.784-.355a.994.994 0 01-.162-.45c-.042-.27-.075-.548-.182-.795-.226-.548-.655-.87-1.214-1.02-.107-.033-.225-.054-.332-.076l-.269-.064c-.397-.118-.601-.365-.601-.709 0-.408.225-.74.601-.848.365-.107.741-.086 1.106.01.87.248 1.514.795 2.02 1.526.332.472.547 1.009.547 1.61z" fill="#E8AA32"/></svg>