<svg width="38" height="38" fill="none" xmlns="http://www.w3.org/2000/svg"><path d="M19.005 0h-.01C8.52 0 0 8.521 0 19a18.86 18.86 0 003.617 11.136L1.25 37.195l7.303-2.335A18.836 18.836 0 0019.005 38C29.48 38 38 29.476 38 19S29.48 0 19.005 0zM30.06 26.83c-.458 1.295-2.277 2.368-3.728 2.682-.993.211-2.29.38-6.655-1.43-5.584-2.313-9.18-7.987-9.46-8.355-.268-.368-2.256-3.005-2.256-5.731 0-2.727 1.385-4.054 1.943-4.624.458-.468 1.216-.682 1.943-.682.235 0 .446.012.636.021.558.024.838.057 1.207.939.458 1.104 1.574 3.83 1.707 4.11.136.281.27.661.08 1.03-.177.38-.334.548-.614.87-.28.324-.546.57-.827.918-.256.301-.546.624-.223 1.182.323.546 1.44 2.368 3.083 3.831 2.12 1.888 3.84 2.491 4.455 2.748.459.19 1.005.145 1.34-.211.425-.459.95-1.219 1.484-1.967.38-.537.86-.603 1.363-.413.513.178 3.228 1.52 3.786 1.798.558.28.926.413 1.062.648.133.235.133 1.34-.326 2.636z" fill="#0FF041"/></svg>