<svg width="43" height="32" viewBox="0 0 43 32" fill="none" xmlns="http://www.w3.org/2000/svg">
<path d="M42.4027 3.03809L22.2554 20.1507C22.0315 20.3352 21.7657 20.4268 21.5 20.4268C21.2343 20.4268 20.9685 20.3352 20.7446 20.1507L0.597297 3.03809C0.223734 3.67968 0 4.43578 0 5.25156V27.3247C0 29.6069 1.69531 31.4634 3.7793 31.4634H39.2207C41.3047 31.4634 43 29.6069 43 27.3247V5.25156C43 4.43578 42.7763 3.67968 42.4027 3.03809Z" fill="#08A6FE"/>
<path d="M39.3228 0H3.88142C3.49358 0 3.12665 0.082866 2.77417 0.202245L21.6021 16.21L40.43 0.202245C40.0776 0.082866 39.7106 0 39.3228 0Z" fill="#08A6FE"/>
</svg>
