<svg width="35" height="38" viewBox="0 0 35 38" fill="none" xmlns="http://www.w3.org/2000/svg">
<path d="M8.2554 33.6095C8.26614 32.5034 8.28762 31.3973 8.29836 30.2912C8.29836 30.0335 8.33057 30.0657 8.08358 29.9583C6.70903 29.4107 5.43112 28.7234 4.30355 27.7569C3.11155 26.7367 2.17728 25.534 1.49 24.1272C0.834939 22.7741 0.469821 21.3352 0.265786 19.8532C0.190614 19.2733 0.14766 18.6934 0.14766 18.1135C0.14766 17.5659 0.0617496 17.0182 0.0510109 16.4705C0.0402722 16.0839 0.0295336 15.6866 0.0402723 15.3C0.0510111 14.5053 -0.0241604 13.7107 0.0080558 12.916C0.0724882 11.1119 0.394651 9.35074 1.10341 7.6755C2.11285 5.2915 3.76661 3.4874 6.02175 2.22023C7.71847 1.27522 9.52257 0.673854 11.4341 0.362432C12.6153 0.169135 13.7966 0.0617476 14.9886 0.0295314C16.4061 -0.0134235 17.8236 -0.0026846 19.2519 0.0187928C21.0774 0.0402703 22.8816 0.21209 24.6535 0.641639C26.3394 1.03897 27.9288 1.67256 29.3892 2.60682C31.1611 3.73439 32.5142 5.22707 33.427 7.12783C33.9961 8.29835 34.3398 9.5333 34.5653 10.8112C34.7264 11.7562 34.7908 12.7012 34.7801 13.657C34.7693 14.6664 34.7479 15.6758 34.6834 16.6745C34.6405 17.3618 34.6405 18.0491 34.6083 18.7364C34.4901 20.6371 34.1035 22.4735 33.2659 24.1917C32.235 26.2964 30.6779 27.8858 28.6375 29.0348C26.9515 29.9798 25.1474 30.5704 23.2574 30.8926C21.7755 31.1396 20.272 31.2577 18.7686 31.2577C17.8451 31.2577 16.9216 31.247 15.998 31.2577C15.5255 31.2577 15.053 31.2685 14.5805 31.2148C14.4302 31.204 14.3228 31.247 14.2261 31.3651C13.4852 32.2242 12.7442 33.0833 11.9925 33.9424C11.069 35.0055 10.1454 36.0687 9.23263 37.1211C9.13598 37.2285 9.02859 37.3358 8.91047 37.411C8.62052 37.6043 8.31984 37.4969 8.24466 37.1533C8.22319 37.0781 8.23393 36.9815 8.23393 36.9063C8.22319 35.8109 8.24467 34.7049 8.2554 33.6095Z" fill="#7000FE"/>
<path d="M6.78415 9.83393C6.81637 8.52381 7.41774 7.53585 8.50236 6.82709C8.95339 6.52641 9.44738 6.29016 9.98432 6.18277C10.5427 6.06464 11.0797 6.13982 11.5522 6.49419C11.8636 6.71971 12.1213 6.99891 12.3791 7.27812C13.2382 8.22312 13.9684 9.2433 14.5591 10.3816C14.6557 10.5749 14.7416 10.7789 14.8061 10.9937C14.9886 11.6058 14.849 12.1427 14.4409 12.6153C14.2906 12.7871 14.1188 12.9374 13.9362 13.077C13.7644 13.1951 13.5926 13.324 13.4315 13.4743C13.0556 13.8287 12.9482 14.2583 13.0664 14.7523C13.1093 14.9563 13.1845 15.1496 13.2597 15.3321C13.7 16.2986 14.2906 17.1685 15.053 17.9202C15.5041 18.3605 15.9873 18.747 16.5243 19.0799C17.0397 19.4021 17.5552 19.7028 18.1351 19.9068C18.672 20.1001 19.0801 19.982 19.4345 19.531C19.5848 19.3377 19.7137 19.1336 19.8855 18.9511C20.2077 18.6074 20.5728 18.3497 21.0346 18.2423C21.5393 18.1242 22.0225 18.2101 22.4843 18.4141C22.9246 18.5967 23.3112 18.8759 23.6978 19.1444C24.471 19.6813 25.2227 20.2505 25.953 20.8411C26.1463 21.0022 26.3181 21.1847 26.4792 21.3888C26.855 21.8827 26.9302 22.4304 26.7691 23.0103C26.6188 23.5687 26.3396 24.052 25.9744 24.4923C25.3408 25.2654 24.5676 25.8453 23.6119 26.1567C23.3542 26.2427 23.0964 26.2964 22.828 26.3178C22.4843 26.35 22.1622 26.2319 21.84 26.1353C21.5286 26.0494 21.2386 25.899 20.9487 25.7702C19.4989 25.1258 18.1029 24.3634 16.782 23.4828C14.7953 22.162 13.0234 20.6156 11.477 18.8007C10.328 17.4477 9.32925 15.9872 8.48088 14.4194C7.9332 13.4207 7.44996 12.3897 7.04188 11.3266C6.8808 10.8648 6.78415 10.2742 6.78415 9.83393Z" fill="#E8AA32"/>
<path d="M27.4669 14.2047C27.4562 14.5591 27.4992 14.8169 27.4669 15.0639C27.3918 15.676 26.8548 15.9981 26.2857 15.7619C25.942 15.6223 25.8347 15.3216 25.8024 14.9887C25.7702 14.5806 25.738 14.1725 25.6736 13.7644C25.4588 12.508 25.1152 11.2945 24.4386 10.1991C23.9339 9.38299 23.2788 8.71718 22.4627 8.19098C21.5177 7.57886 20.4653 7.22448 19.3699 6.97748C18.8974 6.8701 18.4142 6.78419 17.9309 6.74123C17.8128 6.73049 17.7054 6.70901 17.598 6.66606C17.2651 6.54793 17.0933 6.30094 17.1148 5.94655C17.1578 5.3237 17.5121 5.07671 17.9954 5.07671C19.8317 5.04449 21.5069 5.52774 23.0426 6.52645C23.9446 7.11709 24.75 7.81512 25.4158 8.66349C26.7045 10.3065 27.4562 12.1751 27.4669 14.2047Z" fill="#E8AA32"/>
<path d="M24.6857 14.0112C24.675 14.1937 24.7072 14.43 24.6535 14.6662C24.5783 15.0636 24.2991 15.2891 23.8803 15.2998C23.44 15.3105 23.1608 15.1173 23.0641 14.7199C23.0212 14.5696 23.0212 14.4085 22.9997 14.2474C22.9245 13.528 22.7527 12.8192 22.4735 12.1427C22.0869 11.1762 21.3889 10.5212 20.4331 10.1131C19.7673 9.83391 19.08 9.62988 18.3712 9.52249C18.1779 9.49028 17.9954 9.44732 17.8235 9.36141C17.7376 9.31846 17.6625 9.26477 17.6088 9.1896C17.3725 8.89966 17.3833 8.58824 17.5121 8.26609C17.6195 7.97615 17.845 7.81507 18.1565 7.78285C18.4142 7.75064 18.6719 7.79359 18.9297 7.83655C19.6492 7.94393 20.3472 8.12649 21.013 8.4379C21.8614 8.84597 22.5916 9.41511 23.2145 10.1238C23.7407 10.7359 24.138 11.4125 24.3957 12.1749C24.5783 12.7655 24.675 13.3561 24.6857 14.0112Z" fill="#E8AA32"/>
<path d="M22.0117 13.8072C22.0117 14.022 22.0117 14.2368 21.9366 14.4408C21.8292 14.7522 21.6037 14.9348 21.2815 14.9777C20.9486 15.0207 20.6801 14.9026 20.4976 14.6234C20.4009 14.4838 20.358 14.3334 20.3365 14.1723C20.2935 13.9039 20.2613 13.6247 20.1539 13.3777C19.9284 12.83 19.4989 12.5079 18.9404 12.3575C18.8331 12.3253 18.7149 12.3038 18.6075 12.2824C18.5216 12.2609 18.425 12.2394 18.3391 12.2179C17.9417 12.0998 17.7377 11.8528 17.7377 11.5092C17.7377 11.1011 17.9632 10.7682 18.3391 10.6609C18.7042 10.5535 19.0801 10.5749 19.4452 10.6716C20.315 10.9186 20.9593 11.4662 21.4641 12.1965C21.797 12.669 22.0117 13.2059 22.0117 13.8072Z" fill="#E8AA32"/>
</svg>
