<svg width="22" height="22" viewBox="0 0 22 22" fill="none" xmlns="http://www.w3.org/2000/svg">
<path d="M5.8001 22C7.01512 22 8.0001 21.015 8.0001 19.8C8.0001 18.5849 7.01512 17.6 5.8001 17.6C4.58507 17.6 3.6001 18.5849 3.6001 19.8C3.6001 21.015 4.58507 22 5.8001 22Z" fill="black"/>
<path d="M15.4 22C16.615 22 17.6 21.015 17.6 19.8C17.6 18.5849 16.615 17.6 15.4 17.6C14.1849 17.6 13.2 18.5849 13.2 19.8C13.2 21.015 14.1849 22 15.4 22Z" fill="black"/>
<path d="M21.56 6.38C21.12 5.83 20.46 5.5 19.8 5.5H7.26L6.6 1.76C6.38 0.77 5.5 0 4.4 0H2.2C0.99 0 0 0.99 0 2.2C0 3.41 0.99 4.4 2.2 4.4H2.53L4.4 13.64C4.62 14.74 5.5 15.4 6.6 15.4H17.6C18.59 15.4 19.36 14.74 19.69 13.86L21.89 8.36C22.11 7.7 22 7.04 21.56 6.38Z" fill="black"/>
</svg>
