<svg width="22" height="22" viewBox="0 0 22 22" fill="none" xmlns="http://www.w3.org/2000/svg">
<path d="M20.0036 0.0137634C19.9807 0.0119171 19.9614 0 19.9376 0H10.0835C8.56734 0 7.3335 1.23384 7.3335 2.75V3.66661C7.3335 4.17267 7.74405 4.58339 8.25011 4.58339C8.75616 4.58339 9.16672 4.17267 9.16672 3.66661V2.75C9.16672 2.24495 9.57828 1.83339 10.0835 1.83339H14.3542L14.0746 1.92688C13.3322 2.18352 12.8335 2.88293 12.8335 3.66661V17.4166H10.0835C9.57828 17.4166 9.16672 17.0051 9.16672 16.5V14.6666C9.16672 14.1607 8.75616 13.75 8.25011 13.75C7.74405 13.75 7.3335 14.1607 7.3335 14.6666V16.5C7.3335 18.0162 8.56734 19.25 10.0835 19.25H12.8335V20.1666C12.8335 21.1777 13.6556 22 14.6667 22C14.8629 22 15.0491 21.9716 15.2507 21.9092L20.758 20.0731C21.5014 19.8165 22.0001 19.1171 22.0001 18.3334V1.83339C22.0001 0.764542 21.0788 -0.073349 20.0036 0.0137634Z" fill="black"/>
<path d="M9.81467 8.51855L6.14806 4.85194C5.88588 4.58977 5.49178 4.51088 5.14886 4.65304C4.80696 4.79504 4.58339 5.12973 4.58339 5.5V8.25H0.916611C0.410721 8.25 0 8.66072 0 9.16661C0 9.67267 0.410721 10.0834 0.916611 10.0834H4.58339V12.8334C4.58339 13.2037 4.80696 13.5382 5.14886 13.6803C5.49178 13.8223 5.88588 13.7436 6.14806 13.4814L9.81467 9.81467C10.1732 9.45631 10.1732 8.87707 9.81467 8.51855Z" fill="black"/>
</svg>
