<svg width="22" height="22" viewBox="0 0 22 22" fill="none" xmlns="http://www.w3.org/2000/svg">
<path d="M21.917 8.26567C21.7323 7.71253 21.2657 7.31574 20.7 7.22931L14.9575 6.36896L12.3726 0.881566C12.1157 0.337855 11.59 0 11 0C10.41 0 9.88434 0.337855 9.62742 0.881566L7.08026 6.34932L1.30003 7.22931C0.734345 7.31574 0.268439 7.71253 0.0830194 8.26567C-0.106329 8.83373 0.0335217 9.44973 0.448359 9.87323L4.62895 14.1522L3.64135 20.1833C3.54314 20.7859 3.7867 21.376 4.27853 21.7225C4.75151 22.058 5.35963 22.091 5.8656 21.8121L10.9639 18.9647L16.1344 21.8121C16.6419 22.091 17.2485 22.0564 17.7215 21.7225C18.2133 21.376 18.4576 20.7859 18.3586 20.1833L17.3695 14.1443L21.5516 9.87323C21.9665 9.44973 22.1063 8.83373 21.917 8.26567Z" fill="black"/>
</svg>
