<svg width="22" height="25" viewBox="0 0 22 25" fill="none" xmlns="http://www.w3.org/2000/svg">
<path d="M6.94232 12.4705C2.88082 14.2976 1.07834e-06 18.7713 5.33168e-06 23.9999C-0.000363691 24.1091 0.0184267 24.2173 0.0552934 24.3183C0.0921601 24.4193 0.146374 24.5111 0.21481 24.5883C0.283246 24.6656 0.36455 24.7268 0.454036 24.7684C0.543522 24.81 0.639421 24.8312 0.736203 24.8308H21.2695C21.464 24.8299 21.6502 24.7419 21.7872 24.586C21.9242 24.4302 22.0007 24.2194 22 23.9999C22 18.7718 19.12 14.298 15.0591 12.4705C13.9362 13.4644 12.5273 14.0645 11 14.0645C9.47237 14.0645 8.06428 13.4648 6.94232 12.4705Z" fill="black"/>
<path d="M11.0001 0C7.76868 0 5.1377 2.9695 5.1377 6.6166C5.1377 10.2637 7.76868 13.2397 11.0001 13.2397C14.2314 13.2397 16.8682 10.2637 16.8682 6.6166C16.8682 2.9695 14.2314 0 11.0001 0Z" fill="black"/>
</svg>
