<svg width="49" height="35" viewBox="0 0 49 35" fill="none" xmlns="http://www.w3.org/2000/svg">
<path d="M33.2504 2.10814V1.52885C33.2504 0.684796 32.5656 0 31.7216 0H1.52885C0.684796 0 0 0.684796 0 1.52885V29.2073C0 30.0514 0.684796 30.7362 1.52885 30.7362H7.83708C8.50744 33.0817 10.6462 34.8131 13.2042 34.8131C15.7622 34.8131 17.901 33.0817 18.5714 30.7362H31.7216H34.2833C34.9537 33.0817 37.0924 34.8131 39.6505 34.8131C42.2085 34.8131 44.3472 33.0817 45.0176 30.7362H47.0439C47.1067 30.7362 47.1602 30.7077 47.221 30.7003C47.2819 30.7077 47.3354 30.7362 47.3982 30.7362C48.2423 30.7362 48.9271 30.0514 48.9271 29.2073V17.5071C48.9271 9.44194 42.0231 2.80711 33.2504 2.10814ZM45.8105 16.4878H40.0685C38.6034 16.0867 38.3068 13.463 38.3068 9.37712V6.53156C42.4735 8.46327 45.407 12.164 45.8105 16.4878ZM36.2683 5.76577V9.37712C36.2683 13.8084 36.5331 17.8405 39.742 18.5054C39.8097 18.5193 39.8794 18.5263 39.9491 18.5263H45.8694V27.6785H45.0176C44.3472 25.333 42.2085 23.6016 39.6505 23.6016C37.0924 23.6016 34.9537 25.333 34.2833 27.6785H31.7216H18.5714C18.3445 26.8849 17.9526 26.1684 17.4267 25.5604H31.7216C32.132 25.5604 32.4804 25.3152 32.642 24.9659C33.0029 24.6861 33.2504 24.2684 33.2504 23.7767V5.17167C34.296 5.27071 35.3032 5.47724 36.2683 5.76577ZM30.1927 23.5219H3.05769V3.05769H30.1927V23.5219ZM3.05769 25.5604H8.98172C8.45581 26.1684 8.06389 26.8849 7.83708 27.6785H3.05769V25.5604ZM13.2042 31.7554C11.7988 31.7554 10.6561 30.6128 10.6561 29.2073C10.6561 27.8019 11.7988 26.6593 13.2042 26.6593C14.6079 26.6593 15.7486 27.7994 15.7513 29.2024C15.7513 29.2041 15.7503 29.2056 15.7503 29.2073C15.7503 29.2091 15.7513 29.2106 15.7513 29.2123C15.7486 30.6152 14.6079 31.7554 13.2042 31.7554ZM39.6505 31.7554C38.245 31.7554 37.1024 30.6128 37.1024 29.2073C37.1024 27.8019 38.245 26.6593 39.6505 26.6593C41.0559 26.6593 42.1985 27.8019 42.1985 29.2073C42.1985 30.6128 41.0559 31.7554 39.6505 31.7554Z" fill="#1D1D1B"/>
</svg>
