<svg width="49" height="47" viewBox="0 0 49 47" fill="none" xmlns="http://www.w3.org/2000/svg">
<path d="M48.8473 17.6574C48.6681 17.104 48.1903 16.6999 47.613 16.6162L32.5634 14.4285L25.8329 0.782339C25.3154 -0.26078 23.6074 -0.26078 23.0898 0.782339L16.3593 14.4285L1.30969 16.6162C0.732389 16.6999 0.254625 17.104 0.075463 17.6574C-0.105689 18.2108 0.0456029 18.8179 0.461656 19.224L11.3527 29.8463L8.78073 44.8442C8.68319 45.4175 8.91809 45.9988 9.38988 46.3392C9.85769 46.6836 10.4808 46.7254 11.0003 46.4566L24.4614 39.3758L37.9224 46.4566C38.1473 46.5741 38.3922 46.6318 38.635 46.6318C38.649 46.6338 38.6649 46.6338 38.6749 46.6318C39.5209 46.6318 40.2037 45.947 40.2037 45.103C40.2037 44.8919 40.1619 44.6889 40.0843 44.5057L37.57 29.8463L48.4611 19.224C48.8771 18.8179 49.0284 18.2108 48.8473 17.6574ZM34.8607 28.218C34.5004 28.5703 34.3352 29.0759 34.4208 29.5716L36.6045 42.308L25.174 36.2942C24.9511 36.1767 24.7062 36.119 24.4614 36.119C24.2165 36.119 23.9716 36.1767 23.7487 36.2942L12.3182 42.308L14.502 29.5716C14.5876 29.0759 14.4223 28.5703 14.062 28.218L4.81329 19.1962L17.5935 17.3389C18.0932 17.2672 18.5231 16.9527 18.7461 16.5028L24.4614 4.915L30.1766 16.5028C30.3996 16.9527 30.8296 17.2672 31.3292 17.3389L44.1094 19.1962L34.8607 28.218Z" fill="#1D1D1B"/>
</svg>
