<svg width="42" height="43" viewBox="0 0 42 43" fill="none" xmlns="http://www.w3.org/2000/svg">
<path d="M29.9515 25.9535C29.3109 25.9535 28.9036 26.2273 28.6737 26.4572L26.1063 29.0263C26.086 29.0466 25.9762 29.1007 25.7226 29.1007C24.3079 29.1007 21.3044 27.5271 18.2992 24.5202C14.2597 20.4823 13.3689 17.1374 13.7932 16.7132L16.3623 14.1458C18.0559 12.4522 15.0591 8.95006 13.1221 7.01309C12.2432 6.13418 9.22622 3.26929 7.26897 3.26929C6.62838 3.26929 6.22104 3.5431 5.99117 3.77297L0.852949 8.91119C-0.688518 10.4527 -0.139202 13.446 2.48907 17.8067C4.75732 21.5725 8.34394 25.9839 12.5897 30.2297C18.8587 36.4987 27.1661 42.8251 31.5927 42.8251H31.5944C32.7978 42.8251 33.5178 42.3586 33.9083 41.9665L39.0465 36.8283C40.7401 35.1364 37.7434 31.6343 35.8064 29.6973C34.9275 28.8184 31.9105 25.9535 29.9515 25.9535ZM32.0727 40.131C32.0355 40.1681 31.8936 40.229 31.5927 40.229C29.0084 40.229 22.1123 36.0812 14.4253 28.3942C10.3249 24.2937 6.87515 20.0581 4.71169 16.4681C2.29469 12.4539 2.5009 10.9344 2.68851 10.7468L7.49376 5.9415C8.13435 6.20348 9.56933 7.1314 11.2866 8.84865C13.0055 10.5676 13.9318 12.0026 14.1937 12.6415L11.9576 14.8776C9.56257 17.276 12.6151 22.5089 16.4637 26.3558C19.7562 29.65 23.3039 31.6968 25.7226 31.6968C26.8652 31.6968 27.5599 31.2439 27.9419 30.8619L30.178 28.6257C30.8169 28.8877 32.2519 29.8139 33.9708 31.5329C35.6881 33.2518 36.616 34.6851 36.878 35.3257L32.0727 40.131Z" fill="#1D1D1B"/>
<path d="M36.8848 4.38439C34.0588 1.55668 30.2964 0 26.2923 0C26.2906 0 26.2889 0 26.2889 0C25.5723 0 24.9909 0.58143 24.9909 1.29808C24.9909 2.01472 25.5723 2.59615 26.2889 2.59615C26.2906 2.59615 26.2906 2.59615 26.2923 2.59615C29.6034 2.59615 32.7134 3.8824 35.0493 6.21995C37.3868 8.5575 38.6731 11.6675 38.6731 14.9803C38.6731 15.6969 39.2545 16.2784 39.9711 16.2784C40.6878 16.2784 41.2692 15.6969 41.2692 14.9803C41.2709 10.9745 39.7125 7.2121 36.8848 4.38439Z" fill="#1D1D1B"/>
<path d="M24.5768 7.72933C24.5785 7.72933 24.5785 7.72933 24.5801 7.72933C26.9769 7.72933 29.2265 8.66063 30.9184 10.3508C32.6086 12.0427 33.5399 14.2941 33.5399 16.6925C33.5399 17.4091 34.1213 17.9906 34.838 17.9906C35.5546 17.9906 36.1361 17.4091 36.1361 16.6925C36.1378 13.6011 34.936 10.6973 32.754 8.51528C30.5719 6.33491 27.6698 5.13318 24.5801 5.13318C24.5785 5.13318 24.5768 5.13318 24.5768 5.13318C23.8601 5.13318 23.2787 5.71461 23.2787 6.43126C23.2787 7.1479 23.8601 7.72933 24.5768 7.72933Z" fill="#1D1D1B"/>
<path d="M22.8646 12.8625C22.8663 12.8625 22.8663 12.8625 22.868 12.8625C24.3486 12.8625 25.7413 13.4389 26.7859 14.4834C27.8321 15.5297 28.4068 16.9224 28.4068 18.4047C28.4068 19.1213 28.9882 19.7028 29.7048 19.7028C30.4215 19.7028 31.0029 19.1213 31.0029 18.4047C31.0046 16.2294 30.1578 14.1843 28.6214 12.6479C27.0867 11.1115 25.0433 10.2664 22.868 10.2664C22.8663 10.2664 22.8646 10.2664 22.8646 10.2664C22.1479 10.2664 21.5665 10.8478 21.5665 11.5644C21.5665 12.2811 22.1479 12.8625 22.8646 12.8625Z" fill="#1D1D1B"/>
</svg>
