<svg width="49" height="49" viewBox="0 0 49 49" fill="none" xmlns="http://www.w3.org/2000/svg">
<path d="M24.4615 0C10.9727 0 0 10.9727 0 24.4615C0 37.9504 10.9727 48.9231 24.4615 48.9231C37.9504 48.9231 48.9231 37.9504 48.9231 24.4615C48.9231 10.9727 37.9504 0 24.4615 0ZM24.4615 45.8654C12.6588 45.8654 3.05769 36.2643 3.05769 24.4615C3.05769 12.6588 12.6588 3.05769 24.4615 3.05769C36.2643 3.05769 45.8654 12.6588 45.8654 24.4615C45.8654 36.2643 36.2643 45.8654 24.4615 45.8654Z" fill="#1D1D1B"/>
<path d="M25.0149 9.9375H18.798C17.954 9.9375 17.2692 10.6223 17.2692 11.4663V22.9327H15.4139C14.5698 22.9327 13.885 23.6175 13.885 24.4615C13.885 25.3056 14.5698 25.9904 15.4139 25.9904H17.2692V28.0288H15.4139C14.5698 28.0288 13.885 28.7136 13.885 29.5577C13.885 30.4017 14.5698 31.0865 15.4139 31.0865H17.2692V37.4567C17.2692 38.3008 17.954 38.9856 18.798 38.9856C19.6421 38.9856 20.3269 38.3008 20.3269 37.4567V31.0865H26.1536C26.9977 31.0865 27.6825 30.4017 27.6825 29.5577C27.6825 28.7136 26.9977 28.0288 26.1536 28.0288H20.3269V25.9904H25.0149C30.5411 25.9904 35.038 22.3892 35.038 17.9639C35.038 13.5386 30.5411 9.9375 25.0149 9.9375ZM25.0149 22.9327H20.3269V12.9952H25.0149C28.855 12.9952 31.9804 15.2248 31.9804 17.9639C31.9804 20.7031 28.855 22.9327 25.0149 22.9327Z" fill="#1D1D1B"/>
</svg>
