<svg width="196" height="97" viewBox="0 0 196 97" fill="none" xmlns="http://www.w3.org/2000/svg">
<g filter="url(#filter0_d)">
<path d="M178.676 16.8756C177.901 15.769 176.629 15.105 175.301 15.105H149.573V4.14973C149.573 1.88121 147.691 0 145.423 0H52.1922C49.9237 0 48.0425 1.88121 48.0425 4.14973V71.2094C48.0425 73.4779 49.9237 75.3592 52.1922 75.3592H63.9221C66.08 82.884 73.0515 88.4723 81.2403 88.4723C89.4291 88.4723 96.4007 82.9393 98.5586 75.3592H144.538C146.695 82.884 153.667 88.4723 161.856 88.4723C170.045 88.4723 177.016 82.9393 179.174 75.3592H187.75C190.019 75.3592 191.9 73.4779 191.9 71.2094V37.0709C191.9 36.1857 191.623 35.3557 191.125 34.6918L178.676 16.8756ZM183.656 38.2882H165.065V23.4598H173.198L183.656 38.2882ZM56.3419 8.3548H141.273V67.115H98.9459C97.3413 58.7602 90.0378 52.4526 81.2403 52.4526C72.4429 52.4526 65.084 58.7602 63.5348 67.115H56.3419V8.3548ZM81.2403 80.1728C75.8734 80.1728 71.5023 75.8018 71.5023 70.4348C71.5023 65.0678 75.8734 60.6968 81.2403 60.6968C86.6073 60.6968 90.9784 65.0678 90.9784 70.4348C90.9784 75.8018 86.6073 80.1728 81.2403 80.1728ZM161.911 80.1728C156.544 80.1728 152.173 75.8018 152.173 70.4348C152.173 65.0678 156.544 60.6968 161.911 60.6968C167.278 60.6968 171.649 65.0678 171.649 70.4348C171.649 75.8018 167.278 80.1728 161.911 80.1728ZM179.617 67.115C178.012 58.7602 170.709 52.4526 161.911 52.4526C157.153 52.4526 152.782 54.3338 149.573 57.377V23.4598H156.71V42.4379C156.71 44.7065 158.591 46.5877 160.86 46.5877H183.711V67.115H179.617Z" fill="black"/>
<path d="M8.14973 8.35482H37.7512C40.0197 8.35482 41.9009 6.47361 41.9009 4.20509C41.9009 1.93657 40.0197 0.0553589 37.7512 0.0553589H8.14973C5.88121 0.0553589 4 1.93657 4 4.20509C4 6.47361 5.88121 8.35482 8.14973 8.35482Z" fill="black"/>
<path d="M37.7513 15.1603H14.9554C12.6869 15.1603 10.8057 17.0416 10.8057 19.3101C10.8057 21.5786 12.6869 23.4598 14.9554 23.4598H37.7513C40.0198 23.4598 41.901 21.5786 41.901 19.3101C41.901 17.0416 40.0751 15.1603 37.7513 15.1603Z" fill="black"/>
<path d="M37.7513 30.2654H23.3656C21.097 30.2654 19.2158 32.1466 19.2158 34.4151C19.2158 36.6836 21.097 38.5648 23.3656 38.5648H37.7513C40.0198 38.5648 41.901 36.6836 41.901 34.4151C41.901 32.1466 40.0751 30.2654 37.7513 30.2654Z" fill="black"/>
<path d="M37.751 45.3704H32.7713C30.5028 45.3704 28.6216 47.2516 28.6216 49.5202C28.6216 51.7887 30.5028 53.6699 32.7713 53.6699H37.751C40.0195 53.6699 41.9007 51.7887 41.9007 49.5202C41.9007 47.2516 40.0748 45.3704 37.751 45.3704Z" fill="black"/>
</g>
<defs>
<filter id="filter0_d" x="0" y="0" width="195.9" height="96.4723" filterUnits="userSpaceOnUse" color-interpolation-filters="sRGB">
<feFlood flood-opacity="0" result="BackgroundImageFix"/>
<feColorMatrix in="SourceAlpha" type="matrix" values="0 0 0 0 0 0 0 0 0 0 0 0 0 0 0 0 0 0 127 0"/>
<feOffset dy="4"/>
<feGaussianBlur stdDeviation="2"/>
<feColorMatrix type="matrix" values="0 0 0 0 0 0 0 0 0 0 0 0 0 0 0 0 0 0 0.25 0"/>
<feBlend mode="normal" in2="BackgroundImageFix" result="effect1_dropShadow"/>
<feBlend mode="normal" in="SourceGraphic" in2="effect1_dropShadow" result="shape"/>
</filter>
</defs>
</svg>
