<svg width="53" height="51" viewBox="0 0 53 51" fill="none" xmlns="http://www.w3.org/2000/svg">
<g filter="url(#filter0_d)">
<path d="M44.3277 20.0288L32.7638 18.3407L27.5945 7.81431C27.4533 7.52611 27.221 7.2928 26.9341 7.15098C26.2145 6.79416 25.34 7.09151 24.9802 7.81431L19.8108 18.3407L8.24695 20.0288C7.92814 20.0745 7.63665 20.2255 7.41348 20.4542C7.14368 20.7327 6.995 21.1075 7.00013 21.4961C7.00525 21.8846 7.16375 22.2553 7.4408 22.5265L15.8074 30.7198L13.8308 42.2892C13.7844 42.5584 13.8141 42.8351 13.9164 43.0882C14.0186 43.3413 14.1895 43.5605 14.4095 43.721C14.6295 43.8815 14.8899 43.9769 15.1611 43.9963C15.4324 44.0157 15.7036 43.9584 15.9441 43.8309L26.2873 38.3687L36.6306 43.8309C36.913 43.9819 37.2409 44.0322 37.5552 43.9773C38.3476 43.84 38.8805 43.0852 38.7439 42.2892L36.7672 30.7198L45.1338 22.5265C45.3616 22.3024 45.5119 22.0096 45.5574 21.6894C45.6804 20.8888 45.1247 20.1477 44.3277 20.0288V20.0288Z" fill="#E15C5C"/>
</g>
<defs>
<filter id="filter0_d" x="0" y="0" width="52.5745" height="51" filterUnits="userSpaceOnUse" color-interpolation-filters="sRGB">
<feFlood flood-opacity="0" result="BackgroundImageFix"/>
<feColorMatrix in="SourceAlpha" type="matrix" values="0 0 0 0 0 0 0 0 0 0 0 0 0 0 0 0 0 0 127 0"/>
<feOffset/>
<feGaussianBlur stdDeviation="3.5"/>
<feColorMatrix type="matrix" values="0 0 0 0 0.882353 0 0 0 0 0.360784 0 0 0 0 0.360784 0 0 0 1 0"/>
<feBlend mode="normal" in2="BackgroundImageFix" result="effect1_dropShadow"/>
<feBlend mode="normal" in="SourceGraphic" in2="effect1_dropShadow" result="shape"/>
</filter>
</defs>
</svg>
