<svg width="19" height="18" viewBox="0 0 19 18" fill="none" xmlns="http://www.w3.org/2000/svg">
<path d="M18.9421 6.75756C18.8735 6.54832 18.7474 6.36229 18.5779 6.22049C18.4084 6.07869 18.2024 5.98679 17.983 5.95518L12.8573 5.21495L10.5646 0.604384C10.1657 -0.201461 8.83437 -0.201461 8.43545 0.604384L6.14277 5.21495L1.01702 5.95525C0.797771 5.98676 0.59178 6.07854 0.422343 6.22021C0.252907 6.36188 0.126785 6.5478 0.0582451 6.75692C-0.0102952 6.96604 -0.0185196 7.19003 0.0345021 7.40356C0.0875238 7.61708 0.199676 7.81161 0.358273 7.96515L4.06811 11.5547L3.19257 16.6222C3.15515 16.839 3.17959 17.0619 3.26312 17.2656C3.34666 17.4694 3.48595 17.6458 3.66525 17.7751C3.84455 17.9043 4.0567 17.9812 4.27771 17.997C4.49871 18.0127 4.71976 17.9668 4.91585 17.8644L9.50003 15.4722L14.0842 17.8644C14.2803 17.9668 14.5013 18.0127 14.7223 17.997C14.9434 17.9812 15.1555 17.9043 15.3348 17.7751C15.5141 17.6458 15.6534 17.4694 15.7369 17.2656C15.8205 17.0619 15.8449 16.839 15.8075 16.6222L14.9319 11.5547L18.6418 7.96515C18.8002 7.81165 18.9123 7.61724 18.9654 7.40386C19.0184 7.19049 19.0104 6.96663 18.9421 6.75756ZM12.8271 10.2987C12.6894 10.4321 12.5864 10.5967 12.527 10.7784C12.4676 10.9601 12.4536 11.1534 12.4862 11.3417L13.0601 14.6663L10.0532 13.0973C9.88265 13.008 9.69278 12.9614 9.50001 12.9614C9.30723 12.9614 9.11736 13.008 8.94683 13.0973L5.93983 14.6663L6.51379 11.3417C6.54636 11.1534 6.53234 10.9601 6.47295 10.7784C6.41356 10.5967 6.31057 10.4321 6.17285 10.2987L3.73993 7.94446L7.10182 7.45865C7.29238 7.43135 7.47337 7.35839 7.62914 7.24606C7.78492 7.13373 7.91079 6.98543 7.99586 6.81397L9.50003 3.78977L11.0042 6.81397C11.0893 6.98543 11.2151 7.13374 11.3709 7.24607C11.5267 7.3584 11.7077 7.43136 11.8983 7.45865L15.2602 7.94446L12.8271 10.2987Z" fill="#E15C5C"/>
</svg>
