<svg width="19" height="18" viewBox="0 0 19 18" fill="none" xmlns="http://www.w3.org/2000/svg">
<path d="M18.9283 6.76282C18.7688 6.31025 18.3658 5.98561 17.8772 5.91489L12.9178 5.21097L10.6854 0.721281C10.4635 0.276427 10.0096 0 9.5 0C8.99042 0 8.53647 0.276427 8.31459 0.721281L6.11477 5.1949L1.12276 5.91489C0.634207 5.98561 0.231834 6.31025 0.0716986 6.76282C-0.0918294 7.2276 0.0289505 7.7316 0.387219 8.07809L3.99773 11.5791L3.1448 16.5136C3.05998 17.0067 3.27033 17.4895 3.6951 17.773C4.10358 18.0475 4.62877 18.0745 5.06575 17.8463L9.46879 15.5166L13.9343 17.8463C14.3726 18.0745 14.8964 18.0462 15.3049 17.773C15.7297 17.4895 15.9407 17.0067 15.8552 16.5136L15.0009 11.5726L18.6128 8.07809C18.971 7.7316 19.0918 7.2276 18.9283 6.76282Z" fill="#E15C5C"/>
</svg>
