<svg width="39" height="37" viewBox="0 0 39 37" fill="none" xmlns="http://www.w3.org/2000/svg">
<path d="M37.5191 13.0288L25.9552 11.3407L20.7859 0.814313C20.6447 0.526107 20.4124 0.292798 20.1255 0.150982C19.4059 -0.205844 18.5314 0.0915109 18.1716 0.814313L13.0022 11.3407L1.43836 13.0288C1.11954 13.0745 0.828054 13.2255 0.604884 13.4542C0.335083 13.7327 0.18641 14.1075 0.191534 14.4961C0.196659 14.8846 0.35516 15.2553 0.632211 15.5265L8.99883 23.7198L7.02217 35.2892C6.97582 35.5584 7.00547 35.8351 7.10776 36.0882C7.21005 36.3413 7.38089 36.5605 7.60091 36.721C7.82092 36.8815 8.08131 36.9769 8.35254 36.9963C8.62377 37.0157 8.895 36.9584 9.13546 36.8309L19.4787 31.3687L29.822 36.8309C30.1044 36.9819 30.4323 37.0322 30.7466 36.9773C31.539 36.84 32.0719 36.0852 31.9353 35.2892L29.9586 23.7198L38.3253 15.5265C38.553 15.3024 38.7033 15.0096 38.7488 14.6894C38.8718 13.8888 38.3161 13.1477 37.5191 13.0288Z" fill="black" fill-opacity="0.35"/>
</svg>
