<svg width="161" height="161" viewBox="0 0 161 161" fill="none" xmlns="http://www.w3.org/2000/svg">
<g filter="url(#filter0_d)">
<path d="M86.5615 40.1326C89.037 40.1326 91.0439 38.1257 91.0439 35.6502C91.0439 33.1747 89.037 31.1678 86.5615 31.1678H31.3892C28.9137 31.1678 26.9067 33.1747 26.9067 35.6502C26.9067 38.1257 28.9137 40.1326 31.3892 40.1326H86.5615Z" fill="black"/>
<path d="M152.518 60.6101H113.951V4.48242C113.951 2.00693 111.944 0 109.468 0H8.48242C6.00693 0 4 2.00693 4 4.48242V65.1114C4 67.5869 6.00693 69.5938 8.48242 69.5938H21.9022V87.9075C21.9022 89.6807 22.9472 91.2869 24.5683 92.0053C25.1517 92.2638 25.7699 92.3899 26.3837 92.3899C27.4759 92.3899 28.5541 91.9906 29.395 91.2283L47.0492 75.2246V125.721C47.0492 128.197 49.0561 130.204 51.5316 130.204H107.739L131.605 151.838C132.446 152.601 133.524 153 134.616 153C135.23 153 135.848 152.874 136.431 152.615C138.053 151.897 139.098 150.29 139.098 148.517V130.204H152.518C154.993 130.204 157 128.197 157 125.721V65.0925C157 62.617 154.993 60.6101 152.518 60.6101ZM26.3846 60.6289H12.9648V8.96484H104.986V60.6101H51.5319C50.2616 60.6101 49.1174 61.1408 48.3016 61.9898L30.867 77.7942V65.1117C30.867 62.6359 28.8604 60.6289 26.3846 60.6289ZM148.035 121.239H134.615C132.14 121.239 130.133 123.246 130.133 125.721V138.404L112.479 122.4C111.654 121.653 110.581 121.239 109.468 121.239H56.0143V69.5938L148.035 69.575V121.239Z" fill="black"/>
<path d="M74.4385 91.7779C71.963 91.7779 69.9561 93.7848 69.9561 96.2603C69.9561 98.7358 71.963 100.743 74.4385 100.743H129.611C132.087 100.743 134.094 98.7358 134.094 96.2603C134.094 93.7848 132.087 91.7779 129.611 91.7779H74.4385Z" fill="black"/>
</g>
<defs>
<filter id="filter0_d" x="0" y="0" width="161" height="161" filterUnits="userSpaceOnUse" color-interpolation-filters="sRGB">
<feFlood flood-opacity="0" result="BackgroundImageFix"/>
<feColorMatrix in="SourceAlpha" type="matrix" values="0 0 0 0 0 0 0 0 0 0 0 0 0 0 0 0 0 0 127 0"/>
<feOffset dy="4"/>
<feGaussianBlur stdDeviation="2"/>
<feColorMatrix type="matrix" values="0 0 0 0 0 0 0 0 0 0 0 0 0 0 0 0 0 0 0.25 0"/>
<feBlend mode="normal" in2="BackgroundImageFix" result="effect1_dropShadow"/>
<feBlend mode="normal" in="SourceGraphic" in2="effect1_dropShadow" result="shape"/>
</filter>
</defs>
</svg>
