<svg width="26" height="37" viewBox="0 0 26 37" fill="none" xmlns="http://www.w3.org/2000/svg">
<path d="M12.8744 18.8375C9.66336 18.8375 7.05754 16.2066 7.05754 12.9611C7.05754 9.71242 9.66336 7.08308 12.8744 7.08308C16.0854 7.08308 18.6912 9.71394 18.6912 12.9611C18.6912 16.2051 16.0854 18.8375 12.8744 18.8375ZM12.8744 0C5.76374 0 0 5.82319 0 13.0082C0 19.7946 5.83048 28.5484 9.72403 32.8104C11.1786 34.4005 12.8729 36.5444 12.8729 36.5444C12.8729 36.5444 14.693 34.3883 16.2537 32.7511C20.1443 28.6671 25.7472 20.4671 25.7472 13.0082C25.7472 5.82319 19.9835 0 12.8744 0Z" fill="#E15C5C"/>
</svg>
