<svg width="26" height="20" viewBox="0 0 26 20" fill="none" xmlns="http://www.w3.org/2000/svg">
<path d="M16.719 2.75064L14.3723 5.03856C13.4728 4.80458 12.5257 4.80433 11.6261 5.03784C10.7265 5.27135 9.90621 5.73038 9.2477 6.36877C8.5892 7.00716 8.1157 7.80239 7.87483 8.67449C7.63396 9.54658 7.63422 10.4648 7.87557 11.3368L4.21622 14.8715C2.46609 13.5861 1.00765 11.9152 0 10C1.51269 7.12447 3.99478 4.83729 7.03382 3.51852C10.0729 2.19975 13.4859 1.92878 16.7058 2.75064H16.719ZM21.7573 5.12853C23.5207 6.41388 24.9791 8.08483 26 10C24.4863 12.8808 21.9999 15.1717 18.9552 16.4909C15.9104 17.81 12.4913 18.0777 9.26772 17.2494L11.6145 14.9614C12.5139 15.1954 13.4611 15.1957 14.3607 14.9622C15.2602 14.7287 16.0805 14.2696 16.739 13.6312C17.3975 12.9928 17.871 12.1976 18.1119 11.3255C18.3528 10.4534 18.3525 9.53521 18.1112 8.66324L21.7705 5.12853H21.7573ZM21.4258 0L23.3085 1.82519L4.56094 20L2.67823 18.1748L21.4258 0V0Z" fill="#7D776A"/>
</svg>
