<svg width="161" height="131" viewBox="0 0 161 131" fill="none" xmlns="http://www.w3.org/2000/svg">
<g filter="url(#filter0_d)">
<path fill-rule="evenodd" clip-rule="evenodd" d="M143.696 123H17.3043C9.95702 123 4 117.046 4 109.703V39.8919C4 32.5485 9.95702 26.5946 17.3043 26.5946H67.1957V13.2973C67.1957 5.95386 73.1527 0 80.5 0C87.8473 0 93.8044 5.95386 93.8044 13.2973V26.5946H143.696C151.043 26.5946 157 32.5485 157 39.8919V109.703C157 117.046 151.043 123 143.696 123ZM57.264 98.0277C57.264 98.0376 57.264 98.041 57.264 98.041C57.2507 98.041 57.2041 95.4447 57.2041 95.4447C57.2041 95.4447 61.0823 93.4468 63.9594 90.8638C65.6457 89.4775 66.424 86.336 66.424 86.336C66.8797 83.5835 67.2156 76.7719 67.2156 74.0261C67.2156 67.1713 63.7798 59.798 53.888 59.798V59.7714V59.7946C43.9962 59.7946 40.5603 67.1713 40.5603 74.0227C40.5603 76.7686 40.8996 83.5802 41.352 86.3327C41.352 86.3327 42.1303 89.4742 43.8166 90.8604C46.6937 93.4434 50.5719 95.4414 50.5719 95.4414C50.5719 95.4414 50.5253 98.0377 50.512 98.0377C50.512 98.0377 50.512 98.0343 50.512 98.0244C50.512 98.0244 50.6085 101.834 50.6085 102.968C50.6085 107.495 46.0683 109.676 43.2146 109.676C43.2079 109.676 43.2079 109.676 43.2046 109.676C34.58 110.052 32.5445 112.921 32.5278 112.947C32.0023 113.792 31.2706 114.629 30.602 116.351H77.1806C76.512 114.629 75.7803 113.792 75.2448 112.954C75.2282 112.924 73.1926 110.058 64.568 109.683C64.5647 109.683 64.5647 109.683 64.5581 109.683C61.7076 109.683 57.1642 107.505 57.1642 102.974C57.1642 101.837 57.264 98.0277 57.264 98.0277ZM87.1522 13.2973C87.1522 9.62724 84.172 6.64865 80.5 6.64865C76.828 6.64865 73.8478 9.62724 73.8478 13.2973V33.2432C73.8478 36.9133 76.828 39.8919 80.5 39.8919C84.172 39.8919 87.1522 36.9133 87.1522 33.2432V13.2973ZM150.348 39.8919C150.348 36.2218 147.368 33.2432 143.696 33.2432H93.8044C93.8044 40.5867 87.8473 46.5405 80.5 46.5405C73.1527 46.5405 67.1957 40.5867 67.1957 33.2432H17.3043C13.6323 33.2432 10.6522 36.2218 10.6522 39.8919V109.703C10.6522 113.373 13.6323 116.351 17.3043 116.351H23.2813C24.0497 114.393 25.4632 111.202 27.1396 108.905C27.2227 108.858 29.9601 103.124 43.7634 102.954C43.7833 102.885 43.7966 99.4904 43.8365 99.5402C42.7722 98.8687 41.3852 97.8249 40.3408 96.8276C39.4927 96.309 36.4792 93.4069 35.5113 88.2409C35.222 86.4391 33.8882 77.9388 33.8882 74.3917C33.8882 63.8503 38.0957 53.1792 53.6884 53.1792C53.7583 53.1792 54.021 53.1792 54.0909 53.1792C69.6836 53.1792 73.8911 63.8503 73.8911 74.3917C73.8911 77.9388 72.5573 86.4391 72.2679 88.2409C71.3 93.4069 68.2866 96.309 67.4385 96.8276C66.3974 97.8282 65.0104 98.8687 63.9427 99.5402C63.986 99.4904 63.9993 102.888 64.0159 102.954C77.8225 103.124 80.5599 108.858 80.6397 108.905C82.316 111.202 83.7296 114.393 84.498 116.351H143.696C147.368 116.351 150.348 113.373 150.348 109.703V39.8919ZM133.717 69.8108H93.8044C91.965 69.8108 90.4783 68.3248 90.4783 66.4865C90.4783 64.6481 91.965 63.1622 93.8044 63.1622H133.717C135.557 63.1622 137.043 64.6481 137.043 66.4865C137.043 68.3248 135.557 69.8108 133.717 69.8108ZM93.8044 83.1081H100.457C102.296 83.1081 103.783 84.5941 103.783 86.4324C103.783 88.2708 102.296 89.7568 100.457 89.7568H93.8044C91.965 89.7568 90.4783 88.2708 90.4783 86.4324C90.4783 84.5941 91.965 83.1081 93.8044 83.1081ZM93.8044 96.4054H113.761C115.6 96.4054 117.087 97.8914 117.087 99.7297C117.087 101.568 115.6 103.054 113.761 103.054H93.8044C91.965 103.054 90.4783 101.568 90.4783 99.7297C90.4783 97.8914 91.965 96.4054 93.8044 96.4054ZM107.109 86.4324C107.109 84.5941 108.595 83.1081 110.435 83.1081H123.739C125.578 83.1081 127.065 84.5941 127.065 86.4324C127.065 88.2708 125.578 89.7568 123.739 89.7568H110.435C108.595 89.7568 107.109 88.2708 107.109 86.4324ZM77.1739 13.2973H83.8261V19.9459H77.1739V13.2973Z" fill="black"/>
</g>
<defs>
<filter id="filter0_d" x="0" y="0" width="161" height="131" filterUnits="userSpaceOnUse" color-interpolation-filters="sRGB">
<feFlood flood-opacity="0" result="BackgroundImageFix"/>
<feColorMatrix in="SourceAlpha" type="matrix" values="0 0 0 0 0 0 0 0 0 0 0 0 0 0 0 0 0 0 127 0"/>
<feOffset dy="4"/>
<feGaussianBlur stdDeviation="2"/>
<feColorMatrix type="matrix" values="0 0 0 0 0 0 0 0 0 0 0 0 0 0 0 0 0 0 0.25 0"/>
<feBlend mode="normal" in2="BackgroundImageFix" result="effect1_dropShadow"/>
<feBlend mode="normal" in="SourceGraphic" in2="effect1_dropShadow" result="shape"/>
</filter>
</defs>
</svg>
