<svg width="161" height="155" viewBox="0 0 161 155" fill="none" xmlns="http://www.w3.org/2000/svg">
<g filter="url(#filter0_d)">
<path d="M88.2534 51.7317H116.682C118.75 51.7317 120.818 50.1951 120.818 47.6341C120.818 45.0732 118.75 44.0488 116.682 44.0488H88.7703C86.7027 44.0488 84.6351 45.5854 84.6351 48.1463C84.6351 50.7073 86.1858 51.7317 88.2534 51.7317ZM88.2534 63H104.277C106.345 63 108.412 61.4634 108.412 58.9024C108.412 56.3415 106.861 54.8049 104.277 54.8049H88.2534C86.1858 54.8049 84.1182 56.3415 84.1182 58.9024C84.1182 61.4634 86.1858 63 88.2534 63ZM88.2534 39.9512H116.682C118.75 39.9512 120.818 38.4146 120.818 35.8537C120.818 33.2927 118.75 32.2683 116.682 32.2683H88.7703C86.7027 32.2683 84.6351 33.8049 84.6351 36.3659C84.6351 38.9268 86.1858 39.9512 88.2534 39.9512ZM130.639 0H30.3615C15.8885 0 4 11.7805 4 26.122V89.122C4 103.463 15.8885 115.244 30.3615 115.244H53.1047L50.5203 137.781C50.5203 142.902 54.6554 147 59.8243 147H101.176C106.345 147 110.48 142.902 110.48 137.268L107.895 115.244H130.639C145.111 115.244 157 103.463 157 89.122V26.6341C157 11.7805 145.111 0 130.639 0ZM101.176 139.829H59.8243C58.7905 139.829 58.2737 138.805 58.2737 138.805L61.375 115.756H100.659L103.76 138.293C102.726 138.805 102.209 139.829 101.176 139.829ZM149.247 89.122C149.247 99.3659 140.976 107.561 130.639 107.561H30.3615C20.0237 107.561 11.7534 99.3659 11.7534 89.122V26.6341C11.7534 16.3902 20.0237 8.19512 30.3615 8.19512H130.639C140.976 8.19512 149.247 16.3902 149.247 26.6341V89.122ZM133.223 16.9024H27.777C25.1926 16.9024 23.6419 18.439 23.6419 21V86.0488C23.6419 88.0976 25.1926 90.1463 27.777 90.1463H133.74C135.807 90.1463 137.875 88.6098 137.875 86.0488V21C137.358 18.439 135.807 16.9024 133.223 16.9024ZM129.605 81.9512H31.3953V24.5854H129.605V81.9512ZM48.4527 77.8537H81.5338C84.6351 77.8537 86.7027 75.2927 86.7027 72.7317V70.6829C86.7027 67.6098 82.5676 58.9024 73.2635 58.3902C72.2297 58.3902 71.1959 58.9024 70.1622 59.4146C69.1284 59.9268 66.027 60.9512 64.4764 60.9512C62.9257 60.9512 59.8243 59.9268 58.7905 59.9268C57.7568 58.9024 56.723 58.3902 55.6892 58.3902C46.902 58.9024 42.25 66.0732 42.25 69.6585V72.2195C43.2838 75.2927 45.3514 77.8537 48.4527 77.8537ZM55.6892 66.0732C58.7905 68.122 63.9595 68.6341 64.9932 68.6341C66.027 68.6341 71.196 68.122 74.2973 66.0732C76.8818 66.5854 77.9155 68.6341 78.4324 69.6585H51.0372C51.0372 69.6585 52.0709 67.0976 55.6892 66.0732ZM64.9932 58.9024C71.7128 58.9024 76.8818 52.2439 76.8818 44.561C76.8818 36.8781 71.1959 30.2195 64.9932 30.2195C58.2737 30.2195 53.1047 36.8781 53.1047 44.561C52.5878 52.2439 58.2737 58.9024 64.9932 58.9024ZM64.9932 37.9024C67.0608 37.9024 69.1284 40.9756 69.1284 44.561C69.1284 48.1463 67.0608 51.2195 64.9932 51.2195C62.9257 51.2195 60.8581 48.6585 60.8581 44.561C60.3412 40.4634 62.9257 37.9024 64.9932 37.9024Z" fill="black"/>
</g>
<defs>
<filter id="filter0_d" x="0" y="0" width="161" height="155" filterUnits="userSpaceOnUse" color-interpolation-filters="sRGB">
<feFlood flood-opacity="0" result="BackgroundImageFix"/>
<feColorMatrix in="SourceAlpha" type="matrix" values="0 0 0 0 0 0 0 0 0 0 0 0 0 0 0 0 0 0 127 0"/>
<feOffset dy="4"/>
<feGaussianBlur stdDeviation="2"/>
<feColorMatrix type="matrix" values="0 0 0 0 0 0 0 0 0 0 0 0 0 0 0 0 0 0 0.25 0"/>
<feBlend mode="normal" in2="BackgroundImageFix" result="effect1_dropShadow"/>
<feBlend mode="normal" in="SourceGraphic" in2="effect1_dropShadow" result="shape"/>
</filter>
</defs>
</svg>
