<svg width="17" height="11" viewBox="0 0 17 11" fill="none" xmlns="http://www.w3.org/2000/svg">
<path d="M0.85 6.18147H14.0981L9.5387 9.83683C9.20678 10.1029 9.20678 10.5345 9.53849 10.8004C9.87041 11.0665 10.4089 11.0665 10.7408 10.8004L16.751 5.9818C16.7905 5.95012 16.8258 5.91519 16.8568 5.87805C16.871 5.86085 16.881 5.84228 16.8933 5.82439C16.9074 5.80326 16.9235 5.78316 16.9348 5.76084C16.9469 5.73784 16.9537 5.71399 16.9622 5.69014C16.9692 5.67123 16.9783 5.65317 16.9832 5.63375C16.9943 5.58945 17 5.54482 17 5.50001C17 5.4995 16.9998 5.49899 16.9998 5.49848C16.9996 5.45435 16.994 5.41006 16.9832 5.36661C16.9781 5.34617 16.9686 5.32726 16.9611 5.30716C16.9528 5.2845 16.9465 5.2615 16.935 5.23952C16.9227 5.21584 16.9061 5.19438 16.8908 5.17206C16.8793 5.15536 16.8702 5.13833 16.857 5.12231C16.826 5.08466 16.7903 5.04956 16.7505 5.01771L10.7406 0.199604C10.4087 -0.0665063 9.87041 -0.0665065 9.53849 0.199434C9.20656 0.465545 9.20656 0.89708 9.53849 1.16336L14.0979 4.81855H0.85C0.380587 4.81855 0 5.12367 0 5.50001C0 5.87635 0.380587 6.18147 0.85 6.18147Z" fill="black"/>
</svg>
