<?xml version="1.0" standalone="no"?>
<!DOCTYPE svg PUBLIC "-//W3C//DTD SVG 20010904//EN"
 "http://www.w3.org/TR/2001/REC-SVG-20010904/DTD/svg10.dtd">
<svg version="1.0" xmlns="http://www.w3.org/2000/svg"
 width="256.000000pt" height="256.000000pt" viewBox="0 0 256.000000 256.000000"
 preserveAspectRatio="xMidYMid meet">
<metadata>
Created by potrace 1.11, written by Peter Selinger 2001-2013
</metadata>
<g transform="translate(0.000000,256.000000) scale(0.100000,-0.100000)"
fill="#000000" stroke="none">
<path d="M1164 2529 c-29 -15 -38 -34 -80 -179 -20 -69 -40 -133 -45 -142 -14
-26 -36 -22 -82 15 -23 19 -81 64 -129 100 -79 60 -90 65 -118 57 -36 -10
-196 -125 -204 -146 -12 -30 -5 -58 46 -202 46 -130 49 -146 35 -157 -11 -8
-65 -10 -179 -7 -151 3 -165 2 -181 -16 -23 -25 -85 -211 -80 -241 5 -35 9
-38 147 -132 151 -101 159 -114 98 -150 -46 -28 -206 -140 -224 -157 -29 -28
-27 -62 10 -170 46 -138 41 -136 237 -129 114 3 159 1 172 -8 15 -11 12 -24
-36 -158 -33 -92 -51 -158 -49 -178 3 -28 15 -42 97 -101 66 -48 102 -68 123
-68 22 0 62 24 154 95 123 95 146 106 161 83 18 -29 80 -258 69 -258 -6 0 -4
-5 4 -10 8 -5 11 -10 6 -10 -5 0 -4 -6 2 -13 9 -10 6 -13 -13 -13 -13 0 -21 4
-19 8 3 5 10 5 16 2 7 -4 8 -2 4 4 -4 6 -14 8 -23 5 -12 -5 -14 -3 -8 7 5 8 4
11 -3 6 -6 -4 -9 -13 -6 -20 3 -8 1 -17 -5 -21 -7 -3 -8 0 -5 9 4 12 0 16 -16
16 -14 0 -19 4 -15 12 4 7 0 5 -8 -5 -9 -11 -18 -14 -21 -8 -9 13 -36 3 -32
-12 1 -7 1 -9 -1 -4 -3 4 -12 7 -21 7 -13 0 -14 2 -3 9 9 6 10 11 2 15 -6 4
-11 3 -11 -2 0 -13 -40 -52 -53 -51 -9 0 -9 2 1 6 7 2 17 14 24 26 10 19 9 20
-4 10 -8 -7 -19 -9 -23 -5 -5 4 -5 1 -1 -5 4 -7 2 -13 -3 -13 -6 0 -11 4 -11
9 0 6 -9 9 -19 8 -11 0 -17 -5 -15 -9 3 -5 10 -5 16 -2 7 5 8 2 3 -6 -6 -10
-12 -8 -27 9 -10 13 -18 20 -18 16 0 -4 -8 -1 -17 6 -10 7 -4 -2 12 -21 17
-19 21 -27 10 -19 -11 9 -31 22 -45 29 l-25 12 25 -24 c14 -12 20 -19 13 -15
-6 5 -18 5 -24 1 -8 -4 -9 -3 -5 4 6 11 3 13 -19 12 -3 0 -19 7 -36 15 -29 16
-31 15 -36 -4 -6 -24 -14 -26 -31 -9 -9 9 -15 9 -24 -1 -11 -10 -9 -11 7 -6
16 5 17 5 5 -3 -18 -13 -33 -5 -26 15 4 8 1 11 -5 7 -6 -3 -9 -15 -6 -25 3
-11 1 -17 -3 -14 -5 3 -10 0 -12 -7 -3 -7 -7 -5 -11 6 -5 12 -3 15 6 10 6 -4
8 -3 4 1 -9 11 -37 16 -36 7 1 -4 1 -14 0 -22 -1 -12 -3 -12 -11 2 -12 19 -38
18 -51 -3 -7 -11 -9 -11 -9 -1 0 7 -5 10 -12 6 -7 -4 -8 -3 -4 5 4 6 11 9 16
6 4 -3 5 5 2 17 -5 19 -7 20 -10 6 -2 -10 -8 -18 -13 -18 -6 0 -7 6 -3 13 5 8
2 8 -9 -2 -14 -11 -17 -11 -17 0 0 11 -3 11 -11 -1 -8 -11 -12 -12 -16 -2 -3
8 -11 5 -25 -10 -12 -15 -18 -17 -15 -7 3 9 -1 16 -9 16 -8 0 -13 -5 -11 -11
3 -6 -2 -17 -10 -25 -13 -12 -14 -11 -8 9 5 15 3 20 -3 16 -6 -3 -14 -2 -17 4
-4 7 -11 7 -18 2 -7 -5 -22 -8 -35 -7 -20 1 -21 0 -7 -15 13 -14 13 -17 0 -17
-8 0 -13 3 -11 6 2 3 -5 15 -16 26 -13 13 -17 15 -13 4 4 -11 -1 -15 -17 -14
-13 0 -28 4 -35 8 -6 4 -15 2 -19 -4 -4 -8 -3 -9 4 -5 6 3 16 -2 21 -13 12
-22 14 -41 3 -26 -4 6 -16 15 -27 21 -17 10 -21 9 -21 -7 0 -9 5 -15 10 -12 5
3 15 -2 22 -11 7 -10 15 -17 18 -17 24 3 36 0 31 -9 -3 -6 1 -7 9 -4 9 3 13
11 9 18 -4 7 -2 7 8 -1 12 -10 18 -10 28 0 11 10 11 8 2 -10 -6 -13 -10 -23
-9 -24 29 -8 38 -6 29 5 -6 7 -8 16 -4 19 7 8 39 -34 35 -46 -1 -5 2 -6 8 -2
8 5 7 11 -1 21 -12 15 -2 18 25 8 9 -3 13 -11 9 -17 -3 -6 -1 -7 6 -3 6 4 9
10 7 14 -2 4 2 12 9 19 10 10 14 9 19 -2 3 -9 12 -12 22 -8 10 4 15 2 11 -3
-3 -6 3 -15 13 -22 16 -10 21 -7 38 19 12 19 22 27 26 20 4 -6 2 -11 -3 -11
-6 0 -11 -8 -10 -17 0 -11 3 -13 6 -5 2 6 9 12 14 12 6 0 7 -4 4 -10 -3 -5 -1
-10 5 -10 7 0 9 7 6 16 -4 10 -2 14 6 11 7 -2 12 -10 10 -16 -1 -7 2 -10 8 -6
6 3 8 11 5 16 -10 16 6 10 23 -9 10 -10 14 -13 10 -7 -5 8 0 11 15 9 12 -1 32
5 45 13 22 14 23 13 13 -6 -14 -25 -14 -31 0 -31 5 0 7 4 4 10 -3 5 0 10 7 11
38 2 106 -1 125 -5 13 -3 26 0 29 6 5 7 2 8 -6 3 -9 -5 -11 -4 -6 4 11 17 25
4 21 -19 -2 -12 0 -18 6 -15 5 4 6 11 3 17 -4 6 1 8 12 6 11 -2 18 -10 16 -18
-3 -11 0 -11 12 0 9 7 16 9 16 4 0 -5 5 -1 11 9 6 9 15 15 20 11 5 -3 16 0 24
6 8 7 15 8 15 4 0 -5 -9 -15 -19 -21 -15 -10 -21 -10 -24 0 -4 8 -6 8 -6 1 -1
-6 6 -17 15 -24 8 -8 14 -9 12 -4 -2 5 2 11 7 12 6 2 16 9 24 15 11 9 13 9 8
0 -4 -6 -2 -15 4 -19 8 -4 9 -3 5 4 -4 7 -2 12 4 12 6 0 8 5 4 12 -5 7 -3 8 5
4 7 -5 10 -14 7 -22 -3 -7 0 -16 6 -20 7 -4 8 -3 4 4 -4 7 -3 12 3 12 5 0 8 9
6 21 -4 17 -2 19 11 8 9 -7 12 -20 8 -32 -5 -17 -4 -18 9 -6 8 8 13 22 11 32
-1 10 1 15 7 11 6 -3 8 -9 5 -12 -3 -3 -1 -11 5 -18 11 -14 39 -8 39 8 0 6 -6
5 -15 -2 -10 -9 -15 -9 -15 -1 0 11 13 15 38 12 6 -1 12 4 12 10 0 7 3 9 6 6
4 -4 1 -13 -6 -22 -7 -9 -10 -18 -6 -22 3 -3 6 -1 6 5 0 7 5 12 11 12 5 0 7
-4 4 -10 -4 -6 1 -7 11 -3 13 5 15 3 9 -8 -8 -12 -6 -12 8 0 9 7 15 16 13 20
-3 4 4 12 15 19 16 10 20 10 25 -2 3 -8 18 -22 32 -32 15 -9 21 -11 15 -3 -7
7 -13 20 -12 28 0 11 2 12 6 3 2 -6 10 -9 15 -6 7 4 8 2 4 -4 -4 -7 -1 -12 8
-12 26 0 31 4 30 22 -1 10 3 15 7 12 5 -3 7 -10 4 -15 -4 -5 -1 -9 5 -9 6 0 9
-4 5 -9 -3 -5 -1 -13 5 -16 6 -4 10 -3 9 2 -4 22 3 24 29 7 23 -15 25 -15 13
-1 -10 13 -10 17 -1 17 9 0 10 3 1 13 -8 10 -7 14 3 14 7 0 13 -10 12 -21 -1
-15 5 -20 22 -19 39 2 42 3 42 14 0 8 -6 7 -17 -2 -15 -13 -15 -12 -3 8 13 20
15 20 26 5 9 -13 10 -20 1 -31 -10 -12 -9 -12 11 0 12 8 22 17 22 22 0 4 -5 5
-10 2 -16 -10 -11 1 7 16 10 8 14 9 10 2 -4 -6 -3 -14 3 -18 6 -4 8 -10 5 -15
-3 -5 -1 -11 4 -15 6 -3 8 3 6 14 -2 11 3 22 11 25 9 3 12 1 9 -4 -3 -5 -1
-18 5 -27 8 -13 10 -13 7 -3 -3 9 2 25 10 35 14 19 15 19 8 -5 -7 -22 -6 -23
8 -12 11 9 22 10 34 4 12 -6 28 -5 48 4 26 10 33 10 48 -4 16 -14 17 -14 12 0
-4 9 -1 19 6 24 8 4 10 3 5 -4 -4 -7 -2 -12 4 -12 6 0 8 -5 4 -11 -6 -10 -3
-9 37 13 4 1 16 -5 27 -16 21 -18 21 -18 16 10 -2 16 -1 24 3 18 15 -20 43
-24 44 -6 1 11 4 8 9 -8 6 -17 8 -19 9 -7 1 15 4 16 24 5 12 -6 32 -13 43 -13
17 -1 20 3 17 19 -3 13 -1 17 4 10 4 -6 20 -13 35 -16 25 -5 26 -3 16 16 -10
19 -10 20 6 6 10 -8 25 -15 35 -16 14 -2 14 -1 -1 10 -25 18 -23 29 2 14 11
-7 20 -20 21 -28 0 -12 2 -11 7 2 5 13 11 15 22 8 12 -8 12 -10 1 -10 -8 0
-12 -2 -9 -5 3 -3 13 -2 23 1 17 7 17 8 -1 21 -24 17 -13 17 22 -2 30 -15 48
-11 24 6 -12 9 -12 10 3 5 10 -3 21 -6 23 -6 3 0 3 -4 -1 -9 -3 -6 4 -8 16 -6
13 3 29 -1 36 -7 11 -9 13 -8 11 3 -2 8 3 13 11 11 8 -2 11 3 8 12 -6 15 8 15
48 0 16 -6 18 -5 10 7 -5 8 -3 7 6 -3 15 -15 18 -16 23 -2 3 8 2 12 -4 9 -6
-3 -7 1 -4 9 3 9 10 16 16 16 5 0 6 -5 2 -12 -5 -8 -2 -9 9 -5 9 3 19 2 22 -3
4 -7 13 -7 24 0 10 5 20 7 23 5 2 -2 4 5 5 15 1 11 -3 20 -8 20 -6 0 -8 -4 -4
-9 3 -5 0 -13 -6 -17 -8 -4 -9 -3 -5 4 4 7 3 12 -3 12 -5 0 -12 -8 -14 -18 -4
-16 -5 -16 -6 1 -1 12 -5 16 -13 11 -10 -6 -9 -3 0 8 8 9 20 14 28 11 9 -3 14
1 13 13 0 11 -3 14 -6 6 -2 -6 -9 -9 -15 -6 -22 14 -54 9 -66 -11 -12 -19 -12
-19 -10 4 2 13 -3 25 -10 27 -7 1 -8 0 -2 -3 6 -3 -1 -12 -16 -19 -25 -13 -29
-13 -43 2 -9 9 -11 14 -6 11 6 -3 19 1 30 9 10 8 14 14 9 14 -6 0 -14 -3 -18
-7 -10 -10 -48 -14 -42 -5 3 5 -1 9 -9 9 -8 0 -15 -5 -15 -10 0 -6 -3 -7 -7
-4 -3 4 -12 2 -20 -4 -15 -13 -18 2 -3 17 7 7 6 11 -4 11 -8 0 -14 -5 -13 -10
1 -5 -4 -12 -11 -14 -8 -3 -10 1 -6 14 6 16 5 16 -10 -2 -9 -11 -15 -15 -14
-10 2 6 -1 11 -7 12 -5 1 -9 -4 -7 -11 1 -7 -4 -13 -13 -13 -8 0 -12 4 -9 9 3
4 0 8 -6 8 -6 0 -8 4 -5 10 3 6 -1 7 -10 4 -13 -5 -13 -9 -3 -23 11 -14 11
-14 -2 -4 -8 6 -24 13 -35 15 -11 1 -24 8 -28 13 -4 6 -7 2 -5 -9 2 -10 -4
-21 -12 -23 -13 -4 -13 -3 0 6 11 8 12 11 2 11 -7 0 -11 4 -8 9 7 11 -13 9
-32 -2 -7 -5 -9 -14 -5 -20 4 -7 0 -6 -10 2 -20 16 -23 25 -4 15 7 -4 7 -2 -2
7 -10 11 -15 11 -18 2 -3 -7 -9 -13 -14 -13 -6 0 -8 4 -5 9 3 4 -6 13 -19 19
-21 10 -26 8 -34 -7 -7 -12 -6 -22 2 -32 7 -7 2 -5 -10 4 -20 17 -22 17 -31 2
-8 -15 -10 -15 -15 -2 -4 10 -13 13 -26 10 -12 -3 -21 -1 -21 6 0 6 3 10 8 10
20 -3 32 2 26 12 -4 8 -9 7 -15 -2 -5 -8 -9 -9 -9 -4 0 6 -10 -3 -23 -18 -22
-29 -23 -29 -24 -6 -2 18 0 20 7 9 7 -11 9 -10 7 7 -1 16 -4 19 -14 12 -7 -6
-17 -8 -24 -4 -7 5 -7 0 2 -16 10 -21 10 -22 -2 -12 -8 6 -18 12 -24 13 -15 3
-20 10 -6 10 7 0 9 5 5 11 -9 15 -24 -9 -17 -28 3 -7 0 -13 -7 -13 -6 0 -8 5
-5 10 3 6 1 10 -5 10 -6 0 -9 4 -5 9 3 5 1 12 -4 15 -4 3 -8 -3 -7 -14 0 -11
-3 -18 -9 -17 -5 1 -9 9 -8 17 1 11 -3 9 -13 -4 -8 -11 -14 -16 -14 -11 0 4
-10 0 -22 -11 -14 -12 -18 -13 -10 -3 6 9 8 20 4 24 -4 5 -2 5 5 1 6 -3 15 -1
19 5 4 7 3 9 -4 5 -5 -3 -13 0 -15 6 -4 10 -6 10 -6 1 -1 -9 -17 -13 -48 -12
-27 0 -42 3 -35 6 6 2 10 8 8 12 -3 4 13 68 35 141 21 74 39 136 39 137 0 2 9
3 20 3 11 0 72 -41 136 -90 125 -97 149 -109 185 -89 40 21 174 122 184 138
18 30 15 46 -36 193 -40 114 -49 151 -40 162 9 10 43 12 163 9 107 -3 159 0
175 8 16 9 32 40 58 118 38 114 42 148 23 173 -7 8 -58 45 -113 83 -112 77
-145 103 -145 120 0 6 55 48 123 94 67 46 128 91 135 99 19 25 15 59 -23 173
-26 78 -42 109 -58 118 -16 9 -67 11 -170 8 -105 -2 -153 0 -164 9 -15 11 -12
25 35 156 48 137 57 189 34 209 -21 18 -161 118 -181 128 -36 20 -60 8 -185
-89 -64 -49 -122 -90 -130 -90 -23 0 -31 19 -72 160 -22 77 -48 145 -60 159
-21 24 -28 26 -136 28 -67 2 -122 -2 -134 -8z m215 -740 c225 -51 367 -272
325 -506 -20 -113 -120 -244 -229 -297 -73 -35 -84 -38 -182 -42 -131 -5 -241
41 -326 136 -78 86 -115 180 -115 290 0 274 260 481 527 419z m-654 -1551 c5
4 5 1 1 -6 -5 -8 -13 -9 -24 -3 -9 4 -23 6 -29 4 -7 -3 -13 3 -13 11 0 15 3
15 29 2 16 -9 32 -12 36 -8z m1162 -8 c-1 -14 -4 -16 -14 -8 -18 14 -17 39 1
32 8 -3 14 -14 13 -24z m-875 -4 c7 4 8 2 4 -5 -9 -14 -36 3 -36 23 0 6 5 3
11 -7 6 -9 15 -14 21 -11z m-62 -8 c0 -6 -6 -5 -15 2 -8 7 -15 14 -15 16 0 2
7 1 15 -2 8 -4 15 -11 15 -16z m1027 0 c-3 -8 -6 -5 -6 6 -1 11 2 17 5 13 3
-3 4 -12 1 -19z m-1704 -3 c4 -8 1 -17 -5 -21 -7 -5 -8 -2 -3 6 6 10 4 12 -8
7 -9 -3 -19 -1 -23 5 -4 6 -3 8 4 4 6 -3 13 -2 17 4 8 14 12 13 18 -5z m102
-6 c-4 -5 -1 -9 6 -9 7 0 10 -3 6 -6 -3 -3 -14 -1 -24 5 -11 6 -13 11 -5 11 7
0 10 5 6 12 -4 7 -3 8 5 4 6 -4 9 -12 6 -17z m1669 5 c3 -8 2 -12 -4 -9 -6 3
-10 10 -10 16 0 14 7 11 14 -7z m205 -14 c-7 -5 -19 -6 -26 -3 -11 5 -12 8 -2
13 7 5 19 6 26 3 11 -5 12 -8 2 -13z m-2059 -2 c0 -3 -9 -6 -20 -5 -11 1 -20
5 -20 9 0 3 9 6 20 5 11 -1 20 -5 20 -9z m2210 -3 c-7 -8 -17 -15 -23 -15 -6
0 -2 7 9 15 25 19 30 19 14 0z m-2230 -19 c0 -3 -4 -8 -10 -11 -5 -3 -10 -1
-10 4 0 6 5 11 10 11 6 0 10 -2 10 -4z m2095 -16 c4 -6 2 -9 -4 -8 -5 2 -17
-6 -26 -17 -17 -20 -10 0 8 23 12 15 14 15 22 2z m-1975 -14 c0 -2 -7 -7 -16
-10 -8 -3 -12 -2 -9 4 6 10 25 14 25 6z m131 -21 c5 4 6 -1 3 -9 -8 -20 -24
-11 -23 12 0 11 2 12 6 4 2 -6 9 -10 14 -7z m333 -1 c3 -8 2 -12 -4 -9 -6 3
-10 10 -10 16 0 14 7 11 14 -7z m105 -10 c-12 -15 -29 -10 -29 9 0 7 4 6 10
-3 9 -14 14 -7 11 13 -1 5 3 6 9 2 8 -5 8 -11 -1 -21z m954 6 c3 -11 1 -18 -4
-14 -5 3 -9 12 -9 20 0 20 7 17 13 -6z m135 4 c5 3 9 -1 9 -8 0 -20 -23 -15
-37 8 -12 19 -12 20 3 8 9 -8 20 -11 25 -8z m322 12 c0 -3 -4 -8 -10 -11 -5
-3 -10 -1 -10 4 0 6 5 11 10 11 6 0 10 -2 10 -4z m-1123 -13 c-4 -3 -2 -12 5
-20 8 -11 7 -12 -6 -7 -9 3 -16 9 -16 13 0 9 11 21 18 21 3 0 2 -3 -1 -7z
m496 -14 c-8 -8 -13 -7 -18 2 -5 8 -4 10 3 5 7 -4 12 -2 12 5 0 7 3 9 7 6 4
-4 2 -12 -4 -18z m143 9 c3 -4 -1 -5 -10 -4 -8 1 -18 5 -22 8 -3 4 1 5 10 4 8
-1 18 -5 22 -8z m-416 -13 c0 -2 -9 -3 -19 -2 -11 0 -18 5 -15 9 4 6 34 0 34
-7z m54 6 c3 -5 -1 -11 -9 -14 -9 -4 -12 -1 -8 9 6 16 10 17 17 5z"/>
<path d="M550 260 c-9 -6 -10 -10 -3 -10 6 0 15 5 18 10 8 12 4 12 -15 0z"/>
<path d="M1813 253 c-7 -2 -13 -9 -13 -15 0 -7 5 -7 13 1 8 6 18 7 22 3 5 -4
5 -1 1 6 -4 6 -8 12 -9 11 -1 0 -8 -3 -14 -6z"/>
<path d="M500 241 c0 -6 4 -13 10 -16 6 -3 7 1 4 9 -7 18 -14 21 -14 7z"/>
<path d="M2300 210 c-9 -6 -10 -10 -3 -10 6 0 15 5 18 10 8 12 4 12 -15 0z"/>
<path d="M102 154 c1 -13 8 -21 18 -19 8 1 19 -3 23 -9 6 -7 7 -6 4 4 -2 8 -9
15 -16 15 -6 0 -16 7 -21 15 -7 12 -9 10 -8 -6z"/>
<path d="M2392 138 c-7 -7 -12 -16 -12 -21 0 -5 7 -1 16 8 9 9 14 18 12 20 -2
3 -10 -1 -16 -7z"/>
<path d="M185 129 c-4 -6 -5 -12 -2 -15 2 -3 7 2 10 11 7 17 1 20 -8 4z"/>
<path d="M2303 133 c4 -3 1 -13 -6 -22 -11 -14 -10 -14 5 -2 16 12 16 31 1 31
-4 0 -3 -3 0 -7z"/>
<path d="M341 114 c0 -11 3 -14 6 -6 3 7 2 16 -1 19 -3 4 -6 -2 -5 -13z"/>
<path d="M1185 110 c-8 -13 3 -30 18 -29 9 0 9 2 0 5 -7 3 -9 12 -6 20 6 16
-3 19 -12 4z"/>
<path d="M570 98 c0 -4 4 -8 9 -8 6 0 12 4 15 8 3 5 -1 9 -9 9 -8 0 -15 -4
-15 -9z"/>
<path d="M695 91 c-3 -5 -2 -12 3 -15 5 -3 9 1 9 9 0 17 -3 19 -12 6z"/>
<path d="M1595 89 c-4 -6 -4 -13 -1 -16 3 -4 6 -1 6 7 0 10 4 10 18 -1 15 -13
16 -12 3 4 -16 20 -18 20 -26 6z"/>
<path d="M726 78 c3 -5 10 -6 15 -3 13 9 11 12 -6 12 -8 0 -12 -4 -9 -9z"/>
<path d="M1695 80 c3 -5 8 -10 11 -10 2 0 4 5 4 10 0 6 -5 10 -11 10 -5 0 -7
-4 -4 -10z"/>
</g>
</svg>
